<svg width="27" height="24" viewBox="0 0 27 24" fill="none" xmlns="http://www.w3.org/2000/svg">
<g clip-path="url(#clip0_497_573)">
<path d="M19.5131 15.2279C21.0867 13.3015 21.7914 10.9132 21.4864 8.54062C21.1814 6.16808 19.8892 3.98635 17.8682 2.4319C15.8473 0.877445 13.2466 0.0649186 10.5866 0.156874C7.92661 0.24883 5.40337 1.23849 3.52173 2.92785C1.64009 4.61721 0.538807 6.88169 0.438215 9.26825C0.337623 11.6548 1.24514 13.9874 2.9792 15.7995C4.71326 17.6115 7.14598 18.7693 9.79066 19.0412C12.4353 19.3131 15.097 18.6792 17.243 17.2661H17.2414C17.2901 17.3244 17.3421 17.3798 17.4006 17.4337L23.657 23.0467C23.9617 23.3203 24.375 23.4741 24.8061 23.4742C25.2372 23.4743 25.6506 23.3208 25.9556 23.0475C26.2605 22.7741 26.4319 22.4032 26.432 22.0165C26.4322 21.6298 26.2611 21.2588 25.9564 20.9852L19.7 15.3722C19.6419 15.3195 19.5795 15.2722 19.5131 15.2279ZM19.9324 9.62364C19.9324 10.6767 19.7012 11.7194 19.2521 12.6922C18.8029 13.6651 18.1446 14.549 17.3146 15.2936C16.4847 16.0382 15.4994 16.6289 14.4151 17.0318C13.3307 17.4348 12.1685 17.6422 10.9948 17.6422C9.82107 17.6422 8.65886 17.4348 7.57449 17.0318C6.49013 16.6289 5.50485 16.0382 4.67492 15.2936C3.84498 14.549 3.18664 13.6651 2.73748 12.6922C2.28833 11.7194 2.05715 10.6767 2.05715 9.62364C2.05715 7.49698 2.99879 5.45743 4.67492 3.95365C6.35105 2.44988 8.62437 1.60506 10.9948 1.60506C13.3652 1.60506 15.6385 2.44988 17.3146 3.95365C18.9908 5.45743 19.9324 7.49698 19.9324 9.62364Z" fill="#666666"/>
</g>
<defs>
<clipPath id="clip0_497_573">
<rect width="26.0004" height="23.3268" fill="white" transform="translate(0.430664 0.149841)"/>
</clipPath>
</defs>
</svg>
