<svg width="16" height="12" viewBox="0 0 16 12" fill="none" xmlns="http://www.w3.org/2000/svg">
<path fill-rule="evenodd" clip-rule="evenodd" d="M14.2602 0.74138C14.9456 0.925893 15.4859 1.46625 15.6704 2.15159C16.0131 3.40364 15.9999 6.01319 15.9999 6.01319C15.9999 6.01319 15.9999 8.60955 15.6704 9.86161C15.4859 10.5469 14.9456 11.0873 14.2602 11.2718C13.0082 11.6013 7.99997 11.6013 7.99997 11.6013C7.99997 11.6013 3.00493 11.6013 1.7397 11.2586C1.05436 11.0741 0.514001 10.5338 0.329488 9.84842C0 8.60955 0 6.00001 0 6.00001C0 6.00001 0 3.40364 0.329488 2.15159C0.514001 1.46625 1.06754 0.912713 1.7397 0.7282C2.99175 0.398712 7.99997 0.398712 7.99997 0.398712C7.99997 0.398712 13.0082 0.398712 14.2602 0.74138ZM10.571 6.00051L6.40625 8.39918V3.60184L10.571 6.00051Z" fill="white" fill-opacity="0.5"/>
</svg>
