<svg width="1280" height="71" viewBox="0 0 1280 71" fill="none" xmlns="http://www.w3.org/2000/svg">
<line x1="0.240235" y1="33.981" x2="1289.7" y2="33.9811" stroke="#FFA500" stroke-width="5"/>
<ellipse cx="657.96" cy="35.7217" rx="40" ry="35" fill="#FFA500"/>
<g clip-path="url(#clip0_956_978)">
<path d="M657.162 22.305L638.292 41.06C638.186 41.1643 638.102 41.2884 638.044 41.4252C637.986 41.562 637.956 41.7088 637.956 41.8572C637.955 42.0055 637.984 42.1525 638.041 42.2897C638.098 42.4268 638.182 42.5515 638.287 42.6564C638.393 42.7613 638.518 42.8444 638.656 42.901C638.794 42.9575 638.942 42.9864 639.091 42.986C639.241 42.9855 639.388 42.9557 639.526 42.8983C639.664 42.8409 639.788 42.757 639.893 42.6514L657.959 24.6962L676.024 42.6514C676.183 42.808 676.384 42.9146 676.603 42.9579C676.823 43.0012 677.05 42.9792 677.257 42.8947C677.463 42.8102 677.641 42.6669 677.766 42.4828C677.891 42.2988 677.959 42.0821 677.961 41.8599C677.961 41.7123 677.932 41.5662 677.874 41.4302C677.816 41.2942 677.732 41.1711 677.625 41.0684L658.755 22.3133C658.651 22.2087 658.527 22.1256 658.391 22.0686C658.255 22.0116 658.108 21.9818 657.96 21.9811C657.813 21.9803 657.666 22.0085 657.529 22.0641C657.392 22.1196 657.267 22.2015 657.162 22.305Z" fill="white"/>
</g>
<defs>
<clipPath id="clip0_956_978">
<rect width="21" height="40" fill="white" transform="translate(637.96 42.981) rotate(-90)"/>
</clipPath>
</defs>
</svg>
