<svg width="17" height="16" viewBox="0 0 17 16" fill="none" xmlns="http://www.w3.org/2000/svg">
<path d="M6.04638 8C6.04638 6.5273 7.23996 5.33312 8.71272 5.33312C10.1855 5.33312 11.3797 6.5273 11.3797 8C11.3797 9.4727 10.1855 10.6669 8.71272 10.6669C7.23996 10.6669 6.04638 9.4727 6.04638 8ZM4.60465 8C4.60465 10.2688 6.44383 12.1079 8.71272 12.1079C10.9816 12.1079 12.8208 10.2688 12.8208 8C12.8208 5.7312 10.9816 3.8921 8.71272 3.8921C6.44383 3.8921 4.60465 5.7312 4.60465 8ZM12.0234 3.72922C12.0233 3.91909 12.0795 4.10471 12.185 4.26263C12.2904 4.42054 12.4403 4.54365 12.6157 4.61638C12.7911 4.68911 12.9841 4.7082 13.1703 4.67123C13.3566 4.63426 13.5277 4.5429 13.662 4.40869C13.7963 4.27449 13.8878 4.10347 13.9249 3.91726C13.9621 3.73106 13.9431 3.53802 13.8705 3.36258C13.7979 3.18713 13.6749 3.03715 13.5171 2.9316C13.3593 2.82605 13.1737 2.76968 12.9838 2.7696H12.9834C12.7289 2.76972 12.4848 2.87085 12.3048 3.05077C12.1248 3.2307 12.0236 3.47471 12.0234 3.72922ZM5.48059 14.5118C4.70059 14.4763 4.27664 14.3464 3.9949 14.2366C3.62138 14.0912 3.35488 13.918 3.07467 13.6382C2.79447 13.3584 2.62102 13.0922 2.47625 12.7187C2.36642 12.4371 2.2365 12.013 2.20104 11.233C2.16225 10.3898 2.15451 10.1364 2.15451 8.00006C2.15451 5.86368 2.16289 5.61107 2.20104 4.7671C2.23656 3.98714 2.36744 3.5639 2.47625 3.28147C2.62166 2.90797 2.79485 2.64147 3.07467 2.36128C3.35449 2.08109 3.62074 1.90765 3.9949 1.76288C4.27651 1.65306 4.70059 1.52314 5.48059 1.48768C6.32389 1.4489 6.57721 1.44115 8.71272 1.44115C10.8482 1.44115 11.1018 1.44954 11.9458 1.48768C12.7258 1.5232 13.1491 1.65408 13.4315 1.76288C13.805 1.90765 14.0715 2.08147 14.3517 2.36128C14.6319 2.64109 14.8047 2.90797 14.9502 3.28147C15.06 3.56307 15.1899 3.98714 15.2254 4.7671C15.2642 5.61107 15.2719 5.86368 15.2719 8.00006C15.2719 10.1364 15.2642 10.3891 15.2254 11.233C15.1898 12.013 15.0593 12.4369 14.9502 12.7187C14.8047 13.0922 14.6316 13.3587 14.3517 13.6382C14.0719 13.9178 13.805 14.0912 13.4315 14.2366C13.1499 14.3464 12.7258 14.4764 11.9458 14.5118C11.1025 14.5506 10.8492 14.5583 8.71272 14.5583C6.57625 14.5583 6.32364 14.5506 5.48059 14.5118ZM5.41435 0.048448C4.56267 0.087232 3.98069 0.222272 3.47245 0.420032C2.94609 0.624256 2.50051 0.89824 2.05524 1.34278C1.60997 1.78733 1.33668 2.2336 1.13245 2.75994C0.934683 3.26848 0.799638 3.85011 0.760852 4.70176C0.721427 5.55475 0.712402 5.82746 0.712402 8C0.712402 10.1725 0.721427 10.4452 0.760852 11.2982C0.799638 12.15 0.934683 12.7315 1.13245 13.2401C1.33668 13.7661 1.61004 14.2129 2.05524 14.6572C2.50044 15.1016 2.94609 15.3752 3.47245 15.58C3.98165 15.7777 4.56267 15.9128 5.41435 15.9516C6.26783 15.9903 6.54009 16 8.71272 16C10.8854 16 11.1581 15.991 12.0111 15.9516C12.8628 15.9128 13.4444 15.7777 13.953 15.58C14.479 15.3752 14.9249 15.1018 15.3702 14.6572C15.8155 14.2127 16.0882 13.7661 16.293 13.2401C16.4908 12.7315 16.6264 12.1499 16.6646 11.2982C16.7034 10.4446 16.7124 10.1725 16.7124 8C16.7124 5.82746 16.7034 5.55475 16.6646 4.70176C16.6258 3.85005 16.4908 3.26816 16.293 2.75994C16.0882 2.23392 15.8148 1.78803 15.3702 1.34278C14.9256 0.897536 14.479 0.624256 13.9536 0.420032C13.4444 0.222272 12.8628 0.086592 12.0117 0.048448C11.1587 0.009664 10.886 0 8.71336 0C6.54073 0 6.26783 0.009024 5.41435 0.048448Z" fill="white" fill-opacity="0.7"/>
</svg>
