<svg width="27" height="25" viewBox="0 0 27 25" fill="none" xmlns="http://www.w3.org/2000/svg">
<g clip-path="url(#clip0_150_329)">
<path d="M19.1537 15.9706C20.7272 14.0443 21.4319 11.6559 21.1269 9.28336C20.8219 6.91082 19.5297 4.72908 17.5087 3.17463C15.4878 1.62018 12.8872 0.807655 10.2271 0.899611C7.56711 0.991567 5.04387 1.98122 3.16223 3.67059C1.28059 5.35995 0.17931 7.62443 0.0787177 10.011C-0.0218742 12.3975 0.88564 14.7302 2.6197 16.5422C4.35376 18.3542 6.78648 19.512 9.43117 19.784C12.0759 20.0559 14.7375 19.4219 16.8835 18.0088H16.8819C16.9306 18.0671 16.9826 18.1225 17.0411 18.1765L23.2975 23.7895C23.6022 24.063 24.0155 24.2168 24.4466 24.2169C24.8777 24.2171 25.2911 24.0636 25.5961 23.7902C25.901 23.5168 26.0724 23.146 26.0725 22.7592C26.0727 22.3725 25.9016 22.0015 25.5969 21.728L19.3405 16.115C19.2824 16.0622 19.22 16.0149 19.1537 15.9706ZM19.5729 10.3664C19.5729 11.4194 19.3417 12.4621 18.8926 13.435C18.4434 14.4078 17.7851 15.2918 16.9551 16.0364C16.1252 16.781 15.1399 17.3716 14.0556 17.7746C12.9712 18.1775 11.809 18.385 10.6353 18.385C9.46157 18.385 8.29936 18.1775 7.215 17.7746C6.13063 17.3716 5.14536 16.781 4.31542 16.0364C3.48548 15.2918 2.82714 14.4078 2.37799 13.435C1.92883 12.4621 1.69765 11.4194 1.69765 10.3664C1.69765 8.23972 2.63929 6.20016 4.31542 4.69639C5.99155 3.19261 8.26487 2.3478 10.6353 2.3478C13.0057 2.3478 15.279 3.19261 16.9551 4.69639C18.6313 6.20016 19.5729 8.23972 19.5729 10.3664Z" fill="black"/>
</g>
<defs>
<clipPath id="clip0_150_329">
<rect width="26.0004" height="23.3268" fill="white" transform="translate(0.071167 0.892578)"/>
</clipPath>
</defs>
</svg>
