<svg width="17" height="12" viewBox="0 0 17 12" fill="none" xmlns="http://www.w3.org/2000/svg">
<path fill-rule="evenodd" clip-rule="evenodd" d="M14.7602 0.967301C15.4456 1.15181 15.9859 1.69217 16.1704 2.37751C16.5131 3.62956 16.4999 6.23911 16.4999 6.23911C16.4999 6.23911 16.4999 8.83547 16.1704 10.0875C15.9859 10.7729 15.4456 11.3132 14.7602 11.4977C13.5082 11.8272 8.49997 11.8272 8.49997 11.8272C8.49997 11.8272 3.50493 11.8272 2.2397 11.4846C1.55436 11.3 1.014 10.7597 0.829488 10.0743C0.5 8.83547 0.5 6.22593 0.5 6.22593C0.5 6.22593 0.5 3.62956 0.829488 2.37751C1.014 1.69217 1.56754 1.13863 2.2397 0.954122C3.49175 0.624634 8.49997 0.624634 8.49997 0.624634C8.49997 0.624634 13.5082 0.624634 14.7602 0.967301ZM11.071 6.22643L6.90625 8.6251V3.82776L11.071 6.22643Z" fill="white" fill-opacity="0.5"/>
</svg>
