<svg width="216" height="17" viewBox="0 0 216 17" fill="none" xmlns="http://www.w3.org/2000/svg">
<rect x="0.780273" y="6.76196" width="214.76" height="3" rx="1.5" fill="#D0D2D7"/>
<rect x="18.8273" y="6.76196" width="161.521" height="3" fill="#0093A2"/>
<path d="M31.7649 8.26196C31.7649 12.0005 29.0632 14.762 26.0461 14.762C23.0289 14.762 20.3273 12.0005 20.3273 8.26196C20.3273 4.5234 23.0289 1.76196 26.0461 1.76196C29.0632 1.76196 31.7649 4.5234 31.7649 8.26196Z" fill="white" stroke="#0093A2" stroke-width="3"/>
<path d="M184.628 7.76196C184.628 11.2244 182.129 13.762 179.361 13.762C176.593 13.762 174.093 11.2244 174.093 7.76196C174.093 4.29954 176.593 1.76196 179.361 1.76196C182.129 1.76196 184.628 4.29954 184.628 7.76196Z" fill="white" stroke="#0093A2" stroke-width="3"/>
</svg>
