<svg width="1280" height="71" viewBox="0 0 1280 71" fill="none" xmlns="http://www.w3.org/2000/svg">
<line x1="-9.45654" y1="33.4678" x2="1280" y2="33.4679" stroke="#FFA500" stroke-width="5"/>
<ellipse cx="648.264" cy="35.2085" rx="40" ry="35" fill="#FFA500"/>
<g clip-path="url(#clip0_956_965)">
<path d="M647.465 21.7918L628.595 40.5468C628.489 40.6511 628.405 40.7752 628.347 40.912C628.289 41.0488 628.259 41.1956 628.259 41.344C628.258 41.4923 628.287 41.6393 628.344 41.7765C628.401 41.9137 628.485 42.0383 628.59 42.1432C628.696 42.2481 628.821 42.3312 628.959 42.3878C629.097 42.4444 629.245 42.4732 629.394 42.4728C629.544 42.4723 629.691 42.4425 629.829 42.3851C629.967 42.3277 630.092 42.2438 630.196 42.1382L648.262 24.183L666.327 42.1382C666.486 42.2948 666.687 42.4014 666.907 42.4447C667.126 42.488 667.353 42.466 667.56 42.3815C667.767 42.297 667.944 42.1537 668.069 41.9696C668.194 41.7856 668.262 41.5689 668.264 41.3467C668.264 41.1991 668.235 41.053 668.177 40.917C668.119 40.781 668.035 40.6579 667.928 40.5552L649.058 21.8001C648.954 21.6956 648.83 21.6124 648.694 21.5554C648.558 21.4984 648.411 21.4686 648.264 21.4679C648.116 21.4671 647.969 21.4953 647.832 21.5509C647.695 21.6065 647.571 21.6883 647.465 21.7918Z" fill="white"/>
</g>
<defs>
<clipPath id="clip0_956_965">
<rect width="21" height="40" fill="white" transform="translate(628.264 42.4678) rotate(-90)"/>
</clipPath>
</defs>
</svg>
