<svg width="36" height="36" viewBox="0 0 36 36" fill="none" xmlns="http://www.w3.org/2000/svg">
<g clip-path="url(#clip0_935_993)">
<path d="M18.0332 0.499542C8.4082 0.499542 0.533203 8.37454 0.533203 17.9995C0.533203 27.6245 8.4082 35.4995 18.0332 35.4995C27.6582 35.4995 35.5332 27.6245 35.5332 17.9995C35.5332 8.37454 27.6582 0.499542 18.0332 0.499542ZM18.0332 6.33288C21.2415 6.33288 23.8665 9.54121 23.8665 13.6245C23.8665 17.7079 21.2415 20.9162 18.0332 20.9162C14.8249 20.9162 12.1999 17.7079 12.1999 13.6245C12.1999 9.54121 14.8249 6.33288 18.0332 6.33288ZM27.6582 28.937C25.179 31.1245 21.679 32.5829 18.0332 32.5829C14.3874 32.5829 10.8874 31.1245 8.4082 28.937C7.82487 28.3537 7.67904 27.4787 8.26237 26.8954C9.86654 24.9995 12.054 23.687 14.3874 22.9579C15.554 23.5412 16.7207 23.8329 18.0332 23.8329C19.3457 23.8329 20.5124 23.5412 21.679 22.9579C24.1582 23.687 26.1999 24.9995 27.804 26.8954C28.3874 27.4787 28.3874 28.3537 27.6582 28.937Z" fill="white"/>
</g>
<defs>
<clipPath id="clip0_935_993">
<rect width="35" height="35" fill="white" transform="translate(0.533203 0.499542)"/>
</clipPath>
</defs>
</svg>
