<svg width="41" height="37" viewBox="0 0 41 37" fill="none" xmlns="http://www.w3.org/2000/svg">
<g clip-path="url(#clip0_935_991)">
<path d="M17.1663 2.68704V3.99954C22.0544 5.01331 25.7373 9.42728 25.7373 14.7183V16.0034C25.7373 19.2232 26.8957 22.3199 28.9848 24.7261L29.4804 25.2935C30.0428 25.9429 30.1834 26.8589 29.8352 27.6451C29.4871 28.4312 28.7237 28.937 27.88 28.937H2.16714C1.32343 28.937 0.558141 28.4312 0.21249 27.6451C-0.13316 26.8589 0.00509326 25.9429 0.565707 25.2935L1.06229 24.7261C3.15414 22.3199 4.30988 19.2232 4.30988 16.0034V14.7183C4.30988 9.42728 7.93244 5.01331 12.8808 3.99954V2.68704C12.8808 1.47913 13.8384 0.499542 15.0236 0.499542C16.2088 0.499542 17.1663 1.47913 17.1663 2.68704ZM15.0236 35.4995C13.8852 35.4995 12.7938 35.0415 11.9903 34.2212C11.1867 33.4009 10.7381 32.2251 10.7381 31.1245H19.309C19.309 32.2251 18.8604 33.4009 18.0569 34.2212C17.2534 35.0415 16.1016 35.4995 15.0236 35.4995Z" fill="white"/>
</g>
<defs>
<clipPath id="clip0_935_991">
<rect width="40" height="36" fill="white" transform="translate(0.0244141 0.499542)"/>
</clipPath>
</defs>
</svg>
