<svg width="17" height="13" viewBox="0 0 17 13" fill="none" xmlns="http://www.w3.org/2000/svg">
<path fill-rule="evenodd" clip-rule="evenodd" d="M14.9355 1.24135C15.6209 1.42586 16.1612 1.96622 16.3457 2.65156C16.6884 3.90361 16.6752 6.51316 16.6752 6.51316C16.6752 6.51316 16.6752 9.10952 16.3457 10.3616C16.1612 11.0469 15.6209 11.5873 14.9355 11.7718C13.6835 12.1013 8.67526 12.1013 8.67526 12.1013C8.67526 12.1013 3.68022 12.1013 2.41499 11.7586C1.72965 11.5741 1.18929 11.0337 1.00478 10.3484C0.675293 9.10952 0.675293 6.49998 0.675293 6.49998C0.675293 6.49998 0.675293 3.90361 1.00478 2.65156C1.18929 1.96622 1.74283 1.41268 2.41499 1.22817C3.66704 0.898682 8.67526 0.898682 8.67526 0.898682C8.67526 0.898682 13.6835 0.898682 14.9355 1.24135ZM11.2463 6.50048L7.08154 8.89915V4.10181L11.2463 6.50048Z" fill="white" fill-opacity="0.5"/>
</svg>
