<svg width="1280" height="71" viewBox="0 0 1280 71" fill="none" xmlns="http://www.w3.org/2000/svg">
<line x1="-0.597656" y1="33.6222" x2="1288.86" y2="33.6223" stroke="#FFA500" stroke-width="5"/>
<ellipse cx="657.123" cy="35.3629" rx="40" ry="35" fill="#FFA500"/>
<g clip-path="url(#clip0_956_972)">
<path d="M656.324 21.9462L637.454 40.7013C637.348 40.8055 637.264 40.9296 637.206 41.0664C637.148 41.2032 637.118 41.35 637.118 41.4984C637.117 41.6468 637.146 41.7938 637.203 41.9309C637.26 42.0681 637.344 42.1927 637.449 42.2976C637.555 42.4025 637.68 42.4856 637.818 42.5422C637.956 42.5988 638.104 42.6277 638.253 42.6272C638.403 42.6267 638.55 42.5969 638.688 42.5395C638.826 42.4821 638.951 42.3982 639.055 42.2926L657.121 24.3374L675.186 42.2926C675.345 42.4492 675.546 42.5559 675.766 42.5991C675.985 42.6424 676.212 42.6204 676.419 42.5359C676.626 42.4514 676.803 42.3081 676.928 42.1241C677.053 41.94 677.121 41.7233 677.123 41.5011C677.123 41.3536 677.094 41.2074 677.036 41.0714C676.979 40.9354 676.894 40.8123 676.787 40.7096L657.917 21.9545C657.813 21.85 657.689 21.7668 657.553 21.7098C657.417 21.6528 657.27 21.6231 657.123 21.6223C656.975 21.6215 656.828 21.6497 656.691 21.7053C656.554 21.7609 656.43 21.8427 656.324 21.9462Z" fill="white"/>
</g>
<defs>
<clipPath id="clip0_956_972">
<rect width="21" height="40" fill="white" transform="translate(637.123 42.6222) rotate(-90)"/>
</clipPath>
</defs>
</svg>
