<svg width="17" height="17" viewBox="0 0 17 17" fill="none" xmlns="http://www.w3.org/2000/svg">
<path d="M5.72167 8.5C5.72167 7.0273 6.91525 5.83312 8.38802 5.83312C9.86078 5.83312 11.055 7.0273 11.055 8.5C11.055 9.9727 9.86078 11.1669 8.38802 11.1669C6.91525 11.1669 5.72167 9.9727 5.72167 8.5ZM4.27995 8.5C4.27995 10.7688 6.11912 12.6079 8.38802 12.6079C10.6569 12.6079 12.4961 10.7688 12.4961 8.5C12.4961 6.2312 10.6569 4.3921 8.38802 4.3921C6.11912 4.3921 4.27995 6.2312 4.27995 8.5ZM11.6987 4.22922C11.6986 4.41909 11.7548 4.60471 11.8603 4.76263C11.9657 4.92054 12.1156 5.04365 12.291 5.11638C12.4664 5.18911 12.6594 5.2082 12.8456 5.17123C13.0319 5.13426 13.203 5.0429 13.3373 4.90869C13.4716 4.77449 13.5631 4.60347 13.6002 4.41726C13.6373 4.23106 13.6184 4.03802 13.5458 3.86258C13.4732 3.68713 13.3502 3.53715 13.1924 3.4316C13.0346 3.32605 12.849 3.26968 12.6591 3.2696H12.6587C12.4042 3.26972 12.1601 3.37085 11.9801 3.55077C11.8001 3.7307 11.6989 3.97471 11.6987 4.22922ZM5.15589 15.0118C4.37589 14.9763 3.95193 14.8464 3.67019 14.7366C3.29668 14.5912 3.03017 14.418 2.74997 14.1382C2.46976 13.8584 2.29632 13.5922 2.15154 13.2187C2.04171 12.9371 1.91179 12.513 1.87633 11.733C1.83755 10.8898 1.8298 10.6364 1.8298 8.50006C1.8298 6.36368 1.83819 6.11107 1.87633 5.2671C1.91185 4.48714 2.04274 4.0639 2.15154 3.78147C2.29696 3.40797 2.47015 3.14147 2.74997 2.86128C3.02979 2.58109 3.29604 2.40765 3.67019 2.26288C3.95181 2.15306 4.37589 2.02314 5.15589 1.98768C5.99918 1.9489 6.25251 1.94115 8.38802 1.94115C10.5235 1.94115 10.7771 1.94954 11.6211 1.98768C12.4011 2.0232 12.8244 2.15408 13.1068 2.26288C13.4803 2.40765 13.7468 2.58147 14.027 2.86128C14.3072 3.14109 14.48 3.40797 14.6255 3.78147C14.7353 4.06307 14.8652 4.48714 14.9007 5.2671C14.9394 6.11107 14.9472 6.36368 14.9472 8.50006C14.9472 10.6364 14.9394 10.8891 14.9007 11.733C14.8651 12.513 14.7346 12.9369 14.6255 13.2187C14.48 13.5922 14.3068 13.8587 14.027 14.1382C13.7472 14.4178 13.4803 14.5912 13.1068 14.7366C12.8252 14.8464 12.4011 14.9764 11.6211 15.0118C10.7778 15.0506 10.5245 15.0583 8.38802 15.0583C6.25155 15.0583 5.99893 15.0506 5.15589 15.0118ZM5.08964 0.548448C4.23796 0.587232 3.65599 0.722272 3.14774 0.920032C2.62138 1.12426 2.1758 1.39824 1.73053 1.84278C1.28527 2.28733 1.01198 2.7336 0.807744 3.25994C0.609976 3.76848 0.474931 4.35011 0.436145 5.20176C0.39672 6.05475 0.387695 6.32746 0.387695 8.5C0.387695 10.6725 0.39672 10.9452 0.436145 11.7982C0.474931 12.65 0.609976 13.2315 0.807744 13.7401C1.01198 14.2661 1.28533 14.7129 1.73053 15.1572C2.17573 15.6016 2.62138 15.8752 3.14774 16.08C3.65695 16.2777 4.23796 16.4128 5.08964 16.4516C5.94312 16.4903 6.21538 16.5 8.38802 16.5C10.5606 16.5 10.8334 16.491 11.6864 16.4516C12.5381 16.4128 13.1197 16.2777 13.6283 16.08C14.1543 15.8752 14.6002 15.6018 15.0455 15.1572C15.4908 14.7127 15.7635 14.2661 15.9683 13.7401C16.1661 13.2315 16.3017 12.6499 16.3399 11.7982C16.3787 10.9446 16.3877 10.6725 16.3877 8.5C16.3877 6.32746 16.3787 6.05475 16.3399 5.20176C16.3011 4.35005 16.1661 3.76816 15.9683 3.25994C15.7635 2.73392 15.4901 2.28803 15.0455 1.84278C14.6009 1.39754 14.1543 1.12426 13.6289 0.920032C13.1197 0.722272 12.5381 0.586592 11.687 0.548448C10.834 0.509664 10.5613 0.5 8.38866 0.5C6.21602 0.5 5.94312 0.509024 5.08964 0.548448Z" fill="white" fill-opacity="0.7"/>
</svg>
