<svg width="60" height="61" viewBox="0 0 60 61" fill="none" xmlns="http://www.w3.org/2000/svg">
<path d="M53 14.1909L28 38.1909L17 27.1909" stroke="white" stroke-width="2" stroke-miterlimit="10"/>
<path d="M49.75 32.6909C48.5 42.4409 40 50.1909 30 50.1909C19 50.1909 10 41.1909 10 30.1909C10 19.1909 19 10.1909 30 10.1909C33.5 10.1909 36.75 11.1909 39.75 12.6909L43.5 8.94092C39.5 6.69092 35 5.19092 30 5.19092C16.25 5.19092 5 16.4409 5 30.1909C5 43.9409 16.25 55.1909 30 55.1909C43 55.1909 53.5 45.4409 54.75 32.6909H49.75Z" fill="white"/>
</svg>
