<svg width="57" height="58" viewBox="0 0 57 58" fill="none" xmlns="http://www.w3.org/2000/svg">
<g clip-path="url(#clip0_941_1025)">
<path fill-rule="evenodd" clip-rule="evenodd" d="M28.5313 25.5559C26.8513 25.5559 25.4513 26.9809 25.4513 28.6909C25.4513 30.4009 26.8513 31.8259 28.5313 31.8259C30.2113 31.8259 31.6113 30.4009 31.6113 28.6909C31.6113 26.9809 30.2113 25.5559 28.5313 25.5559ZM28.5313 0.190918C13.1313 0.190918 0.531311 13.0159 0.531311 28.6909C0.531311 44.3659 13.1313 57.1909 28.5313 57.1909C43.9313 57.1909 56.5313 44.3659 56.5313 28.6909C56.5313 13.0159 43.9313 0.190918 28.5313 0.190918ZM34.6913 34.9609L11.7313 45.7909L22.3713 22.4209L45.3313 11.5909L34.6913 34.9609Z" fill="white"/>
</g>
<defs>
<clipPath id="clip0_941_1025">
<rect width="56" height="57" fill="white" transform="translate(0.531311 0.190918)"/>
</clipPath>
</defs>
</svg>
