<svg width="65" height="65" viewBox="0 0 65 65" fill="none" xmlns="http://www.w3.org/2000/svg">
<g clip-path="url(#clip0_941_1033)">
<path d="M60.5997 25.3309C60.4497 24.9109 60.0797 24.621 59.6398 24.561L43.9697 21.6009L43.7797 21.5809C43.3397 21.5809 42.9397 21.8209 42.7298 22.2009C42.5197 22.5709 42.5397 23.0209 42.8097 23.4509L45.0197 26.361C41.9997 27.2909 39.2298 28.8409 36.8598 30.8909V18.2609L41.5397 19.291C41.9697 19.3909 42.4198 19.241 42.6997 18.9009C42.9898 18.561 43.0697 18.0909 42.8598 17.601L34.0897 0.910958C33.8998 0.470948 33.4697 0.190918 32.9898 0.190918C32.5097 0.190918 32.0797 0.470948 31.9198 0.840938L23.1198 17.621C22.9098 18.0209 22.9597 18.5209 23.2398 18.871C23.5297 19.231 23.9997 19.4009 24.4198 19.2909L29.1198 18.2609V30.9009C26.7496 28.8409 23.9798 27.3009 20.9497 26.3609L23.2097 23.3809C23.4397 23.0209 23.4497 22.5709 23.2497 22.2009C23.0397 21.8209 22.6398 21.5809 22.1997 21.5809L6.32973 24.561C5.88979 24.621 5.51967 24.921 5.36977 25.3409C5.22976 25.7609 5.32973 26.2209 5.63979 26.5409L16.1098 38.5709L16.1997 38.6609C16.5397 38.971 17.0097 39.051 17.4298 38.8809C17.8397 38.7209 18.1198 38.3509 18.1598 37.8509L18.2496 33.6009C23.6598 35.0309 26.3397 38.5109 27.6398 41.2709C28.6198 43.3309 29.1198 45.6409 29.1198 48.1409V56.801H24.5597V64.1909H41.4198V56.801H36.8598V48.1309C36.8598 45.671 37.3698 43.301 38.3297 41.2709C39.6398 38.5109 42.3097 35.0309 47.7297 33.6009L47.8097 37.921C47.8497 38.3509 48.1298 38.7209 48.5397 38.8909C48.9597 39.051 49.4397 38.9609 49.7797 38.6609L60.3297 26.5409C60.6398 26.2209 60.7496 25.751 60.5997 25.3309ZM34.8598 15.7709V56.801H31.1198V15.7709L25.7197 16.9609L32.9898 3.11096L40.2697 16.9609L34.8598 15.7709Z" fill="white"/>
</g>
<defs>
<clipPath id="clip0_941_1033">
<rect width="64" height="64" fill="white" transform="translate(0.986938 0.190918)"/>
</clipPath>
</defs>
</svg>
