<svg width="27" height="24" viewBox="0 0 27 24" fill="none" xmlns="http://www.w3.org/2000/svg">
<g clip-path="url(#clip0_11_67)">
<path d="M19.9268 15.2082C21.5003 13.2818 22.205 10.8934 21.9001 8.52091C21.5951 6.14837 20.3028 3.96663 18.2819 2.41218C16.2609 0.85773 13.6603 0.0452043 11.0003 0.13716C8.34024 0.229116 5.81701 1.21877 3.93536 2.90813C2.05372 4.5975 0.952442 6.86198 0.85185 9.24854C0.751258 11.6351 1.65877 13.9677 3.39283 15.7798C5.12689 17.5918 7.55962 18.7496 10.2043 19.0215C12.849 19.2934 15.5106 18.6594 17.6566 17.2464H17.655C17.7038 17.3047 17.7558 17.3601 17.8143 17.414L24.0706 23.027C24.3753 23.3006 24.7887 23.4544 25.2197 23.4545C25.6508 23.4546 26.0643 23.3011 26.3692 23.0278C26.6741 22.7544 26.8455 22.3835 26.8457 21.9968C26.8458 21.61 26.6747 21.2391 26.37 20.9655L20.1137 15.3525C20.0556 15.2998 19.9931 15.2525 19.9268 15.2082ZM20.346 9.60393C20.346 10.6569 20.1149 11.6996 19.6657 12.6725C19.2165 13.6454 18.5582 14.5293 17.7283 15.2739C16.8983 16.0185 15.9131 16.6092 14.8287 17.0121C13.7443 17.4151 12.5821 17.6225 11.4084 17.6225C10.2347 17.6225 9.07249 17.4151 7.98813 17.0121C6.90377 16.6092 5.91849 16.0185 5.08855 15.2739C4.25862 14.5293 3.60028 13.6454 3.15112 12.6725C2.70196 11.6996 2.47078 10.6569 2.47078 9.60393C2.47078 7.47727 3.41242 5.43771 5.08855 3.93394C6.76468 2.43016 9.038 1.58535 11.4084 1.58535C13.7788 1.58535 16.0521 2.43016 17.7283 3.93394C19.4044 5.43771 20.346 7.47727 20.346 9.60393Z" fill="black"/>
</g>
<defs>
<clipPath id="clip0_11_67">
<rect width="26.0004" height="23.3268" fill="white" transform="translate(0.844299 0.130127)"/>
</clipPath>
</defs>
</svg>
