<svg width="17" height="13" viewBox="0 0 17 13" fill="none" xmlns="http://www.w3.org/2000/svg">
<path fill-rule="evenodd" clip-rule="evenodd" d="M14.9356 1.24159C15.621 1.42611 16.1613 1.96647 16.3459 2.6518C16.6885 3.90386 16.6753 6.5134 16.6753 6.5134C16.6753 6.5134 16.6753 9.10977 16.3459 10.3618C16.1613 11.0472 15.621 11.5875 14.9356 11.772C13.6836 12.1015 8.67538 12.1015 8.67538 12.1015C8.67538 12.1015 3.68034 12.1015 2.41511 11.7588C1.72978 11.5743 1.18942 11.034 1.0049 10.3486C0.675415 9.10976 0.675415 6.50022 0.675415 6.50022C0.675415 6.50022 0.675415 3.90386 1.0049 2.6518C1.18942 1.96647 1.74296 1.41293 2.41511 1.22841C3.66717 0.898926 8.67538 0.898926 8.67538 0.898926C8.67538 0.898926 13.6836 0.898926 14.9356 1.24159ZM11.2464 6.50072L7.08167 8.8994V4.10205L11.2464 6.50072Z" fill="white" fill-opacity="0.5"/>
</svg>
