<svg width="61" height="61" viewBox="0 0 61 61" fill="none" xmlns="http://www.w3.org/2000/svg">
<circle cx="30.9598" cy="30.0492" r="30" fill="#FFA500"/>
<g clip-path="url(#clip0_234_764)">
<path d="M20.324 30.6887L34.2952 46.9453C34.3729 47.0368 34.4655 47.1097 34.5678 47.1598C34.6702 47.2099 34.7801 47.2362 34.8914 47.2373C35.0026 47.2383 35.113 47.2141 35.2162 47.1659C35.3193 47.1177 35.4132 47.0466 35.4924 46.9566C35.5716 46.8666 35.6346 46.7594 35.6777 46.6414C35.7209 46.5234 35.7433 46.3967 35.7437 46.2688C35.7441 46.1408 35.7225 46.0141 35.6801 45.8959C35.6377 45.7776 35.5754 45.6702 35.4968 45.5799L22.1214 30.0166L35.6783 14.6112C35.7965 14.476 35.8775 14.3037 35.9111 14.1159C35.9446 13.9282 35.9293 13.7333 35.8669 13.5557C35.8046 13.3781 35.698 13.2257 35.5606 13.1176C35.4232 13.0095 35.261 12.9505 35.0944 12.9479C34.9837 12.9468 34.874 12.9714 34.7717 13.0202C34.6694 13.069 34.5767 13.141 34.4991 13.2318L20.3382 29.3235C20.2593 29.4122 20.1963 29.5179 20.1529 29.6345C20.1094 29.7511 20.0864 29.8764 20.085 30.0032C20.0837 30.13 20.1041 30.2558 20.1451 30.3734C20.1861 30.491 20.2469 30.5982 20.324 30.6887Z" fill="white"/>
</g>
<defs>
<clipPath id="clip0_234_764">
<rect width="15.75" height="34.2857" fill="white" transform="translate(35.7342 47.2379) rotate(-179.664)"/>
</clipPath>
</defs>
</svg>
