<svg width="46" height="46" viewBox="0 0 46 46" fill="none" xmlns="http://www.w3.org/2000/svg">
<g clip-path="url(#clip0_234_210)">
<path d="M22.1548 45.0144C20.3962 43.9389 1.38545 31.4093 1.06498 31.1145C0.660608 30.7425 0.606528 29.8825 0.956091 29.3828C1.23297 28.987 2.08018 28.7961 2.51811 29.0307C2.69129 29.1235 7.38856 32.1906 12.9565 35.8466C18.5244 39.5025 23.1432 42.4937 23.2205 42.4937C23.2978 42.4937 27.9166 39.5025 33.4846 35.8466C39.0525 32.1906 43.7498 29.1235 43.923 29.0307C44.3609 28.7961 45.2081 28.987 45.485 29.3828C45.8345 29.8824 45.7804 30.7424 45.3761 31.115C45.0561 31.4099 26.0511 43.9354 24.2862 45.0145C23.8344 45.2908 23.3549 45.5168 23.2205 45.5168C23.0862 45.5168 22.6066 45.2907 22.1548 45.0144ZM22.4317 37.8745C21.6102 37.4282 21.4573 36.4401 22.1088 35.7879C22.9748 34.9208 24.7303 35.4842 24.7303 36.6292C24.7303 37.2317 24.5031 37.6102 23.9784 37.8819C23.4301 38.1658 22.9637 38.1636 22.4317 37.8745ZM18.5989 35.3274C17.5283 34.853 17.1687 33.8658 17.782 33.0851C18.1752 32.5846 18.699 32.5016 19.4211 32.8253C20.4901 33.3045 20.8179 34.2639 20.1633 34.9974C19.7326 35.4799 19.1978 35.5927 18.5989 35.3274ZM26.7469 35.3906C26.002 35.0897 25.7187 34.1076 26.1845 33.4416C26.5011 32.9892 27.5003 32.5405 27.9847 32.6332C28.4917 32.7302 28.9576 33.3585 28.9576 33.9453C28.9576 34.5099 28.5258 35.0305 27.8087 35.3304C27.24 35.5684 27.1933 35.571 26.7469 35.3906ZM14.2375 32.4922C13.5526 32.1129 13.2562 31.7118 13.2562 31.1643C13.2562 29.672 14.9416 29.3486 15.9604 30.6453C16.3803 31.1797 16.3579 31.6406 15.8848 32.2035C15.465 32.703 14.8218 32.8157 14.2375 32.4922ZM30.5562 32.2035C30.0831 31.6406 30.0608 31.1797 30.4807 30.6453C31.1842 29.7499 32.4491 29.568 32.9541 30.2897C33.3038 30.7897 33.2497 31.6498 32.8452 32.0187C31.9623 32.8238 31.1338 32.8907 30.5562 32.2035ZM22.5592 30.8315C21.3634 30.1361 1.06122 16.7237 0.914007 16.5319C0.599771 16.1224 0.681146 15.2281 1.06498 14.8726C1.25181 14.6996 6.19435 11.4104 12.0484 7.56323C20.9693 1.70062 22.7777 0.568429 23.2205 0.568359C23.6635 0.568288 25.4693 1.6988 34.3927 7.56266C40.2467 11.4096 45.1893 14.6988 45.3761 14.8721C45.7599 15.2281 45.8412 16.1224 45.5271 16.532C45.3657 16.7422 24.6753 30.3988 23.8397 30.8465C23.461 31.0494 22.923 31.0432 22.5592 30.8315ZM10.0102 29.7218C9.33467 29.3689 9.0289 28.9243 9.0289 28.2946C9.0289 27.1961 10.1602 26.7236 11.2202 27.3794C12.7998 28.3569 11.6518 30.5791 10.0102 29.7218ZM35.1851 29.7918C34.9982 29.7166 34.7332 29.4197 34.5962 29.1321C34.3854 28.6896 34.3766 28.5377 34.5386 28.1461C34.9494 27.1531 36.4395 26.7389 37.0935 27.4359C37.7577 28.1437 37.4535 29.225 36.4571 29.6984C35.8719 29.9765 35.6791 29.9906 35.1851 29.7918ZM5.45187 26.7616C5.17245 26.5824 4.89747 26.233 4.79772 25.9304C4.65204 25.4884 4.66905 25.3339 4.90854 24.9233C5.2934 24.2635 5.94147 24.0857 6.68071 24.4369C7.71978 24.9305 8.03905 25.9829 7.36702 26.6991C6.92395 27.1713 6.13111 27.1972 5.45187 26.7616ZM39.074 26.6991C38.402 25.9829 38.7213 24.9305 39.7603 24.4369C40.4996 24.0857 41.1477 24.2635 41.5325 24.9233C41.7725 25.3348 41.7892 25.4879 41.6424 25.9333C41.2941 26.9899 39.7725 27.4435 39.074 26.6991ZM1.44622 24.1268C0.93086 23.8375 0.725288 23.4603 0.725288 22.8041C0.725288 21.6972 2.04658 21.2406 2.97833 22.0255C3.85152 22.7611 3.49171 24.1339 2.38601 24.2854C2.06658 24.3292 1.6949 24.2665 1.44622 24.1268ZM43.6497 24.2028C43.2218 24.0302 42.9982 23.5976 42.9982 22.9424C42.9982 22.5411 43.1081 22.3243 43.4627 22.0255C44.4048 21.2319 45.7158 21.6973 45.7158 22.8253C45.7158 23.4756 45.5 23.8492 44.9639 24.1267C44.4728 24.381 44.1393 24.4003 43.6497 24.2028Z" fill="#1C2331"/>
</g>
<defs>
<clipPath id="clip0_234_210">
<path d="M0.720459 0.568359H35.7205C41.2433 0.568359 45.7205 5.04551 45.7205 10.5684V45.5168H10.7205C5.19761 45.5168 0.720459 41.0396 0.720459 35.5168V0.568359Z" fill="white"/>
</clipPath>
</defs>
</svg>
