<svg width="61" height="61" viewBox="0 0 61 61" fill="none" xmlns="http://www.w3.org/2000/svg">
<circle cx="30.7196" cy="30.2944" r="30" fill="#FFA500"/>
<g clip-path="url(#clip0_234_760)">
<path d="M40.3118 28.9753L26.2455 12.8009C26.1673 12.7099 26.0742 12.6375 25.9716 12.588C25.869 12.5385 25.7589 12.5128 25.6476 12.5124C25.5364 12.512 25.4261 12.5369 25.3232 12.5857C25.2204 12.6345 25.1269 12.7062 25.0482 12.7966C24.9695 12.8871 24.9072 12.9946 24.8648 13.1129C24.8223 13.2312 24.8007 13.3579 24.801 13.4859C24.8014 13.6138 24.8237 13.7404 24.8668 13.8584C24.9098 13.9764 24.9728 14.0834 25.0519 14.1733L38.5183 29.6579L25.0519 45.1425C24.9345 45.2785 24.8545 45.4512 24.8221 45.6392C24.7896 45.8271 24.8061 46.0219 24.8695 46.1991C24.9329 46.3763 25.0403 46.5281 25.1784 46.6354C25.3164 46.7427 25.479 46.8008 25.6456 46.8024C25.7563 46.8028 25.8659 46.7776 25.9679 46.7282C26.0699 46.6788 26.1622 46.6063 26.2392 46.5149L40.3055 30.3405C40.3839 30.2514 40.4463 30.1454 40.4891 30.0285C40.5318 29.9116 40.5541 29.7862 40.5547 29.6594C40.5553 29.5326 40.5341 29.4069 40.4924 29.2896C40.4508 29.1722 40.3894 29.0654 40.3118 28.9753Z" fill="white"/>
</g>
<defs>
<clipPath id="clip0_234_760">
<rect width="15.75" height="34.2857" fill="white" transform="translate(24.8048 12.5167)"/>
</clipPath>
</defs>
</svg>
