<svg width="474" height="121" viewBox="0 0 474 121" fill="none" xmlns="http://www.w3.org/2000/svg">
<mask id="path-1-outside-1_1002_1106" maskUnits="userSpaceOnUse" x="0.898865" y="0.572754" width="473" height="120" fill="black">
<rect fill="white" x="0.898865" y="0.572754" width="473" height="120"/>
<path d="M27.7227 2.16935H39.5693V30.1239C39.5693 33.4478 38.7739 36.3242 37.183 38.7532C35.6063 41.1679 33.4045 43.0358 30.5778 44.3568C27.7511 45.6637 24.4699 46.3171 20.7341 46.3171C16.9699 46.3171 13.6744 45.6637 10.8477 44.3568C8.02102 43.0358 5.81932 41.1679 4.24261 38.7532C2.68011 36.3242 1.89886 33.4478 1.89886 30.1239V2.16935H13.7455V29.1012C13.7455 30.4506 14.0438 31.658 14.6403 32.7233C15.2369 33.7745 16.0608 34.5983 17.1119 35.1949C18.1773 35.7915 19.3847 36.0898 20.7341 36.0898C22.0977 36.0898 23.3051 35.7915 24.3563 35.1949C25.4074 34.5983 26.2313 33.7745 26.8278 32.7233C27.4244 31.658 27.7227 30.4506 27.7227 29.1012V2.16935Z"/>
<path d="M82.9553 2.16935V45.8057H73.069L57.3019 22.8796H57.0462V45.8057H45.1996V2.16935H55.2565L70.7678 25.0103H71.1087V2.16935H82.9553Z"/>
<path d="M100.406 2.16935V45.8057H88.559V2.16935H100.406Z"/>
<path d="M104.827 11.7148V2.16935H142.753V11.7148H129.628V45.8057H117.952V11.7148H104.827Z"/>
<path d="M147.211 45.8057V2.16935H178.66V11.7148H159.058V19.2148H177.041V28.7603H159.058V36.2603H178.575V45.8057H147.211Z"/>
<path d="M201.325 45.8057H184.536V2.16935H201.155C205.644 2.16935 209.521 3.04293 212.788 4.79009C216.07 6.52304 218.598 9.02304 220.374 12.2901C222.163 15.5429 223.058 19.4421 223.058 23.9875C223.058 28.533 222.171 32.4392 220.395 35.7063C218.619 38.9591 216.105 41.4591 212.852 43.2063C209.6 44.9392 205.757 45.8057 201.325 45.8057ZM196.382 35.7489H200.899C203.058 35.7489 204.898 35.4009 206.418 34.7049C207.952 34.0088 209.117 32.8085 209.912 31.104C210.722 29.3995 211.126 27.0273 211.126 23.9875C211.126 20.9478 210.715 18.5756 209.891 16.871C209.081 15.1665 207.888 13.9662 206.311 13.2702C204.749 12.5742 202.831 12.2262 200.558 12.2262H196.382V35.7489Z"/>
<path d="M264.015 15.8057C263.902 14.3853 263.369 13.2773 262.417 12.4818C261.48 11.6864 260.052 11.2887 258.135 11.2887C256.913 11.2887 255.912 11.4378 255.13 11.7361C254.363 12.0202 253.795 12.4108 253.426 12.908C253.057 13.4051 252.865 13.9733 252.851 14.6125C252.822 15.1381 252.914 15.6139 253.128 16.0401C253.355 16.452 253.71 16.8284 254.193 17.1693C254.676 17.496 255.294 17.7943 256.047 18.0642C256.799 18.3341 257.694 18.5756 258.731 18.7887L262.311 19.5557C264.726 20.0671 266.792 20.7418 268.511 21.5799C270.23 22.4179 271.636 23.4051 272.73 24.5415C273.824 25.6637 274.626 26.9279 275.138 28.3341C275.663 29.7404 275.933 31.2745 275.947 32.9364C275.933 35.8057 275.216 38.2347 273.795 40.2233C272.375 42.212 270.343 43.7247 267.701 44.7617C265.074 45.7986 261.913 46.3171 258.22 46.3171C254.427 46.3171 251.118 45.756 248.291 44.6338C245.478 43.5117 243.291 41.7858 241.728 39.4563C240.18 37.1125 239.399 34.1154 239.385 30.4648H250.635C250.706 31.8 251.039 32.9222 251.636 33.8313C252.233 34.7404 253.071 35.4293 254.15 35.898C255.244 36.3668 256.544 36.6012 258.049 36.6012C259.314 36.6012 260.372 36.4449 261.224 36.1324C262.076 35.8199 262.723 35.3867 263.163 34.8327C263.603 34.2787 263.831 33.6466 263.845 32.9364C263.831 32.2688 263.611 31.6864 263.184 31.1892C262.772 30.6779 262.091 30.2233 261.139 29.8256C260.187 29.4137 258.902 29.0301 257.282 28.675L252.936 27.7375C249.072 26.8995 246.025 25.5003 243.795 23.5401C241.579 21.5657 240.478 18.8739 240.493 15.4648C240.478 12.6949 241.217 10.273 242.709 8.19918C244.214 6.11111 246.295 4.48469 248.951 3.31991C251.622 2.15514 254.683 1.57275 258.135 1.57275C261.657 1.57275 264.704 2.16224 267.275 3.34122C269.846 4.5202 271.828 6.18213 273.22 8.32702C274.626 10.4577 275.336 12.9506 275.351 15.8057H264.015Z"/>
<path d="M279.26 11.7148V2.16935H317.187V11.7148H304.062V45.8057H292.385V11.7148H279.26Z"/>
<path d="M327.472 45.8057H314.688L329.092 2.16935H345.285L359.688 45.8057H346.904L337.359 14.1864H337.018L327.472 45.8057ZM325.086 28.5898H349.12V37.4534H325.086V28.5898Z"/>
<path d="M357.19 11.7148V2.16935H395.116V11.7148H381.991V45.8057H370.315V11.7148H357.19Z"/>
<path d="M399.575 45.8057V2.16935H431.023V11.7148H411.421V19.2148H429.404V28.7603H411.421V36.2603H430.938V45.8057H399.575Z"/>
<path d="M460.422 15.8057C460.308 14.3853 459.775 13.2773 458.824 12.4818C457.886 11.6864 456.459 11.2887 454.541 11.2887C453.319 11.2887 452.318 11.4378 451.537 11.7361C450.77 12.0202 450.201 12.4108 449.832 12.908C449.463 13.4051 449.271 13.9733 449.257 14.6125C449.228 15.1381 449.321 15.6139 449.534 16.0401C449.761 16.452 450.116 16.8284 450.599 17.1693C451.082 17.496 451.7 17.7943 452.453 18.0642C453.206 18.3341 454.101 18.5756 455.138 18.7887L458.717 19.5557C461.132 20.0671 463.199 20.7418 464.917 21.5799C466.636 22.4179 468.042 23.4051 469.136 24.5415C470.23 25.6637 471.032 26.9279 471.544 28.3341C472.069 29.7404 472.339 31.2745 472.353 32.9364C472.339 35.8057 471.622 38.2347 470.201 40.2233C468.781 42.212 466.75 43.7247 464.108 44.7617C461.48 45.7986 458.319 46.3171 454.626 46.3171C450.834 46.3171 447.524 45.756 444.697 44.6338C441.885 43.5117 439.697 41.7858 438.135 39.4563C436.586 37.1125 435.805 34.1154 435.791 30.4648H447.041C447.112 31.8 447.446 32.9222 448.042 33.8313C448.639 34.7404 449.477 35.4293 450.557 35.898C451.65 36.3668 452.95 36.6012 454.456 36.6012C455.72 36.6012 456.778 36.4449 457.63 36.1324C458.483 35.8199 459.129 35.3867 459.569 34.8327C460.01 34.2787 460.237 33.6466 460.251 32.9364C460.237 32.2688 460.017 31.6864 459.591 31.1892C459.179 30.6779 458.497 30.2233 457.545 29.8256C456.593 29.4137 455.308 29.0301 453.689 28.675L449.342 27.7375C445.478 26.8995 442.432 25.5003 440.201 23.5401C437.986 21.5657 436.885 18.8739 436.899 15.4648C436.885 12.6949 437.623 10.273 439.115 8.19918C440.62 6.11111 442.701 4.48469 445.358 3.31991C448.028 2.15514 451.089 1.57275 454.541 1.57275C458.064 1.57275 461.111 2.16224 463.682 3.34122C466.253 4.5202 468.234 6.18213 469.626 8.32702C471.032 10.4577 471.743 12.9506 471.757 15.8057H460.422Z"/>
<path d="M94.738 96.9875C94.738 101.845 93.7934 105.943 91.9042 109.282C90.015 112.605 87.4653 115.127 84.255 116.845C81.0448 118.55 77.4653 119.402 73.5164 119.402C69.5391 119.402 65.9454 118.543 62.7352 116.824C59.5391 115.091 56.9965 112.563 55.1073 109.239C53.2323 105.901 52.2948 101.817 52.2948 96.9875C52.2948 92.1296 53.2323 88.0387 55.1073 84.7148C56.9965 81.3767 59.5391 78.8554 62.7352 77.1509C65.9454 75.4321 69.5391 74.5728 73.5164 74.5728C77.4653 74.5728 81.0448 75.4321 84.255 77.1509C87.4653 78.8554 90.015 81.3767 91.9042 84.7148C93.7934 88.0387 94.738 92.1296 94.738 96.9875ZM82.5505 96.9875C82.5505 94.3739 82.2025 92.1722 81.5065 90.3824C80.8246 88.5784 79.809 87.2148 78.4596 86.2915C77.1244 85.354 75.4766 84.8853 73.5164 84.8853C71.5562 84.8853 69.9014 85.354 68.5519 86.2915C67.2167 87.2148 66.2011 88.5784 65.505 90.3824C64.8232 92.1722 64.4823 94.3739 64.4823 96.9875C64.4823 99.6012 64.8232 101.81 65.505 103.614C66.2011 105.404 67.2167 106.767 68.5519 107.705C69.9014 108.628 71.5562 109.09 73.5164 109.09C75.4766 109.09 77.1244 108.628 78.4596 107.705C79.809 106.767 80.8246 105.404 81.5065 103.614C82.2025 101.81 82.5505 99.6012 82.5505 96.9875Z"/>
<path d="M100.219 118.806V75.1693H130.901V84.7148H112.066V92.2148H129.026V101.76H112.066V118.806H100.219Z"/>
<path d="M158.547 118.806H145.762L160.166 75.1693H176.359L190.762 118.806H177.978L168.433 87.1864H168.092L158.547 118.806ZM156.16 101.59H180.194V110.453H156.16V101.59Z"/>
<path d="M194.965 75.1693H209.71L219.852 99.8853H220.363L230.505 75.1693H245.249V118.806H233.658V93.5784H233.318L223.602 118.465H216.613L206.897 93.408H206.556V118.806H194.965V75.1693Z"/>
<path d="M250.864 118.806V75.1693H282.313V84.7148H262.71V92.2148H280.693V101.76H262.71V109.26H282.227V118.806H250.864Z"/>
<path d="M288.188 118.806V75.1693H307.023C310.262 75.1693 313.096 75.7588 315.525 76.9378C317.954 78.1168 319.843 79.8142 321.192 82.0301C322.542 84.246 323.216 86.9023 323.216 89.9989C323.216 93.1239 322.52 95.7588 321.128 97.9037C319.75 100.049 317.812 101.668 315.312 102.762C312.826 103.855 309.921 104.402 306.597 104.402H295.347V95.1978H304.211C305.603 95.1978 306.789 95.0273 307.769 94.6864C308.763 94.3313 309.523 93.7702 310.049 93.0032C310.589 92.2361 310.858 91.2347 310.858 89.9989C310.858 88.7489 310.589 87.7333 310.049 86.952C309.523 86.1566 308.763 85.5742 307.769 85.2049C306.789 84.8213 305.603 84.6296 304.211 84.6296H300.035V118.806H288.188ZM313.756 98.7773L324.665 118.806H311.796L301.142 98.7773H313.756Z"/>
<path d="M340.113 75.1693V118.806H328.266V75.1693H340.113Z"/>
<path d="M386.466 91.533H374.449C374.363 90.5387 374.136 89.6367 373.767 88.827C373.412 88.0174 372.915 87.3213 372.275 86.7389C371.65 86.1424 370.89 85.6878 369.995 85.3753C369.101 85.0486 368.085 84.8853 366.949 84.8853C364.96 84.8853 363.277 85.3682 361.899 86.3341C360.535 87.3 359.498 88.685 358.788 90.4889C358.092 92.2929 357.744 94.4591 357.744 96.9875C357.744 99.658 358.099 101.895 358.809 103.699C359.534 105.489 360.578 106.838 361.941 107.747C363.305 108.642 364.946 109.09 366.863 109.09C367.957 109.09 368.937 108.955 369.804 108.685C370.67 108.401 371.423 107.996 372.062 107.47C372.701 106.945 373.22 106.313 373.618 105.574C374.03 104.821 374.307 103.976 374.449 103.039L386.466 103.124C386.324 104.97 385.805 106.853 384.91 108.77C384.015 110.674 382.744 112.435 381.096 114.054C379.463 115.659 377.439 116.952 375.024 117.932C372.609 118.912 369.804 119.402 366.608 119.402C362.602 119.402 359.008 118.543 355.826 116.824C352.659 115.105 350.152 112.577 348.305 109.239C346.473 105.901 345.557 101.817 345.557 96.9875C345.557 92.1296 346.494 88.0387 348.369 84.7148C350.244 81.3767 352.772 78.8554 355.954 77.1509C359.136 75.4321 362.687 74.5728 366.608 74.5728C369.363 74.5728 371.899 74.9492 374.214 75.702C376.53 76.4549 378.561 77.5557 380.308 79.0046C382.055 80.4392 383.461 82.2077 384.527 84.31C385.592 86.4122 386.238 88.8199 386.466 91.533Z"/>
<path d="M401.828 118.806H389.044L403.447 75.1693H419.64L434.044 118.806H421.26L411.714 87.1864H411.373L401.828 118.806ZM399.441 101.59H423.476V110.453H399.441V101.59Z"/>
</mask>
<path d="M27.7227 2.16935H39.5693V30.1239C39.5693 33.4478 38.7739 36.3242 37.183 38.7532C35.6063 41.1679 33.4045 43.0358 30.5778 44.3568C27.7511 45.6637 24.4699 46.3171 20.7341 46.3171C16.9699 46.3171 13.6744 45.6637 10.8477 44.3568C8.02102 43.0358 5.81932 41.1679 4.24261 38.7532C2.68011 36.3242 1.89886 33.4478 1.89886 30.1239V2.16935H13.7455V29.1012C13.7455 30.4506 14.0438 31.658 14.6403 32.7233C15.2369 33.7745 16.0608 34.5983 17.1119 35.1949C18.1773 35.7915 19.3847 36.0898 20.7341 36.0898C22.0977 36.0898 23.3051 35.7915 24.3563 35.1949C25.4074 34.5983 26.2313 33.7745 26.8278 32.7233C27.4244 31.658 27.7227 30.4506 27.7227 29.1012V2.16935Z" fill="white" fill-opacity="0.5"/>
<path d="M82.9553 2.16935V45.8057H73.069L57.3019 22.8796H57.0462V45.8057H45.1996V2.16935H55.2565L70.7678 25.0103H71.1087V2.16935H82.9553Z" fill="white" fill-opacity="0.5"/>
<path d="M100.406 2.16935V45.8057H88.559V2.16935H100.406Z" fill="white" fill-opacity="0.5"/>
<path d="M104.827 11.7148V2.16935H142.753V11.7148H129.628V45.8057H117.952V11.7148H104.827Z" fill="white" fill-opacity="0.5"/>
<path d="M147.211 45.8057V2.16935H178.66V11.7148H159.058V19.2148H177.041V28.7603H159.058V36.2603H178.575V45.8057H147.211Z" fill="white" fill-opacity="0.5"/>
<path d="M201.325 45.8057H184.536V2.16935H201.155C205.644 2.16935 209.521 3.04293 212.788 4.79009C216.07 6.52304 218.598 9.02304 220.374 12.2901C222.163 15.5429 223.058 19.4421 223.058 23.9875C223.058 28.533 222.171 32.4392 220.395 35.7063C218.619 38.9591 216.105 41.4591 212.852 43.2063C209.6 44.9392 205.757 45.8057 201.325 45.8057ZM196.382 35.7489H200.899C203.058 35.7489 204.898 35.4009 206.418 34.7049C207.952 34.0088 209.117 32.8085 209.912 31.104C210.722 29.3995 211.126 27.0273 211.126 23.9875C211.126 20.9478 210.715 18.5756 209.891 16.871C209.081 15.1665 207.888 13.9662 206.311 13.2702C204.749 12.5742 202.831 12.2262 200.558 12.2262H196.382V35.7489Z" fill="white" fill-opacity="0.5"/>
<path d="M264.015 15.8057C263.902 14.3853 263.369 13.2773 262.417 12.4818C261.48 11.6864 260.052 11.2887 258.135 11.2887C256.913 11.2887 255.912 11.4378 255.13 11.7361C254.363 12.0202 253.795 12.4108 253.426 12.908C253.057 13.4051 252.865 13.9733 252.851 14.6125C252.822 15.1381 252.914 15.6139 253.128 16.0401C253.355 16.452 253.71 16.8284 254.193 17.1693C254.676 17.496 255.294 17.7943 256.047 18.0642C256.799 18.3341 257.694 18.5756 258.731 18.7887L262.311 19.5557C264.726 20.0671 266.792 20.7418 268.511 21.5799C270.23 22.4179 271.636 23.4051 272.73 24.5415C273.824 25.6637 274.626 26.9279 275.138 28.3341C275.663 29.7404 275.933 31.2745 275.947 32.9364C275.933 35.8057 275.216 38.2347 273.795 40.2233C272.375 42.212 270.343 43.7247 267.701 44.7617C265.074 45.7986 261.913 46.3171 258.22 46.3171C254.427 46.3171 251.118 45.756 248.291 44.6338C245.478 43.5117 243.291 41.7858 241.728 39.4563C240.18 37.1125 239.399 34.1154 239.385 30.4648H250.635C250.706 31.8 251.039 32.9222 251.636 33.8313C252.233 34.7404 253.071 35.4293 254.15 35.898C255.244 36.3668 256.544 36.6012 258.049 36.6012C259.314 36.6012 260.372 36.4449 261.224 36.1324C262.076 35.8199 262.723 35.3867 263.163 34.8327C263.603 34.2787 263.831 33.6466 263.845 32.9364C263.831 32.2688 263.611 31.6864 263.184 31.1892C262.772 30.6779 262.091 30.2233 261.139 29.8256C260.187 29.4137 258.902 29.0301 257.282 28.675L252.936 27.7375C249.072 26.8995 246.025 25.5003 243.795 23.5401C241.579 21.5657 240.478 18.8739 240.493 15.4648C240.478 12.6949 241.217 10.273 242.709 8.19918C244.214 6.11111 246.295 4.48469 248.951 3.31991C251.622 2.15514 254.683 1.57275 258.135 1.57275C261.657 1.57275 264.704 2.16224 267.275 3.34122C269.846 4.5202 271.828 6.18213 273.22 8.32702C274.626 10.4577 275.336 12.9506 275.351 15.8057H264.015Z" fill="white" fill-opacity="0.5"/>
<path d="M279.26 11.7148V2.16935H317.187V11.7148H304.062V45.8057H292.385V11.7148H279.26Z" fill="white" fill-opacity="0.5"/>
<path d="M327.472 45.8057H314.688L329.092 2.16935H345.285L359.688 45.8057H346.904L337.359 14.1864H337.018L327.472 45.8057ZM325.086 28.5898H349.12V37.4534H325.086V28.5898Z" fill="white" fill-opacity="0.5"/>
<path d="M357.19 11.7148V2.16935H395.116V11.7148H381.991V45.8057H370.315V11.7148H357.19Z" fill="white" fill-opacity="0.5"/>
<path d="M399.575 45.8057V2.16935H431.023V11.7148H411.421V19.2148H429.404V28.7603H411.421V36.2603H430.938V45.8057H399.575Z" fill="white" fill-opacity="0.5"/>
<path d="M460.422 15.8057C460.308 14.3853 459.775 13.2773 458.824 12.4818C457.886 11.6864 456.459 11.2887 454.541 11.2887C453.319 11.2887 452.318 11.4378 451.537 11.7361C450.77 12.0202 450.201 12.4108 449.832 12.908C449.463 13.4051 449.271 13.9733 449.257 14.6125C449.228 15.1381 449.321 15.6139 449.534 16.0401C449.761 16.452 450.116 16.8284 450.599 17.1693C451.082 17.496 451.7 17.7943 452.453 18.0642C453.206 18.3341 454.101 18.5756 455.138 18.7887L458.717 19.5557C461.132 20.0671 463.199 20.7418 464.917 21.5799C466.636 22.4179 468.042 23.4051 469.136 24.5415C470.23 25.6637 471.032 26.9279 471.544 28.3341C472.069 29.7404 472.339 31.2745 472.353 32.9364C472.339 35.8057 471.622 38.2347 470.201 40.2233C468.781 42.212 466.75 43.7247 464.108 44.7617C461.48 45.7986 458.319 46.3171 454.626 46.3171C450.834 46.3171 447.524 45.756 444.697 44.6338C441.885 43.5117 439.697 41.7858 438.135 39.4563C436.586 37.1125 435.805 34.1154 435.791 30.4648H447.041C447.112 31.8 447.446 32.9222 448.042 33.8313C448.639 34.7404 449.477 35.4293 450.557 35.898C451.65 36.3668 452.95 36.6012 454.456 36.6012C455.72 36.6012 456.778 36.4449 457.63 36.1324C458.483 35.8199 459.129 35.3867 459.569 34.8327C460.01 34.2787 460.237 33.6466 460.251 32.9364C460.237 32.2688 460.017 31.6864 459.591 31.1892C459.179 30.6779 458.497 30.2233 457.545 29.8256C456.593 29.4137 455.308 29.0301 453.689 28.675L449.342 27.7375C445.478 26.8995 442.432 25.5003 440.201 23.5401C437.986 21.5657 436.885 18.8739 436.899 15.4648C436.885 12.6949 437.623 10.273 439.115 8.19918C440.62 6.11111 442.701 4.48469 445.358 3.31991C448.028 2.15514 451.089 1.57275 454.541 1.57275C458.064 1.57275 461.111 2.16224 463.682 3.34122C466.253 4.5202 468.234 6.18213 469.626 8.32702C471.032 10.4577 471.743 12.9506 471.757 15.8057H460.422Z" fill="white" fill-opacity="0.5"/>
<path d="M94.738 96.9875C94.738 101.845 93.7934 105.943 91.9042 109.282C90.015 112.605 87.4653 115.127 84.255 116.845C81.0448 118.55 77.4653 119.402 73.5164 119.402C69.5391 119.402 65.9454 118.543 62.7352 116.824C59.5391 115.091 56.9965 112.563 55.1073 109.239C53.2323 105.901 52.2948 101.817 52.2948 96.9875C52.2948 92.1296 53.2323 88.0387 55.1073 84.7148C56.9965 81.3767 59.5391 78.8554 62.7352 77.1509C65.9454 75.4321 69.5391 74.5728 73.5164 74.5728C77.4653 74.5728 81.0448 75.4321 84.255 77.1509C87.4653 78.8554 90.015 81.3767 91.9042 84.7148C93.7934 88.0387 94.738 92.1296 94.738 96.9875ZM82.5505 96.9875C82.5505 94.3739 82.2025 92.1722 81.5065 90.3824C80.8246 88.5784 79.809 87.2148 78.4596 86.2915C77.1244 85.354 75.4766 84.8853 73.5164 84.8853C71.5562 84.8853 69.9014 85.354 68.5519 86.2915C67.2167 87.2148 66.2011 88.5784 65.505 90.3824C64.8232 92.1722 64.4823 94.3739 64.4823 96.9875C64.4823 99.6012 64.8232 101.81 65.505 103.614C66.2011 105.404 67.2167 106.767 68.5519 107.705C69.9014 108.628 71.5562 109.09 73.5164 109.09C75.4766 109.09 77.1244 108.628 78.4596 107.705C79.809 106.767 80.8246 105.404 81.5065 103.614C82.2025 101.81 82.5505 99.6012 82.5505 96.9875Z" fill="white" fill-opacity="0.5"/>
<path d="M100.219 118.806V75.1693H130.901V84.7148H112.066V92.2148H129.026V101.76H112.066V118.806H100.219Z" fill="white" fill-opacity="0.5"/>
<path d="M158.547 118.806H145.762L160.166 75.1693H176.359L190.762 118.806H177.978L168.433 87.1864H168.092L158.547 118.806ZM156.16 101.59H180.194V110.453H156.16V101.59Z" fill="white" fill-opacity="0.5"/>
<path d="M194.965 75.1693H209.71L219.852 99.8853H220.363L230.505 75.1693H245.249V118.806H233.658V93.5784H233.318L223.602 118.465H216.613L206.897 93.408H206.556V118.806H194.965V75.1693Z" fill="white" fill-opacity="0.5"/>
<path d="M250.864 118.806V75.1693H282.313V84.7148H262.71V92.2148H280.693V101.76H262.71V109.26H282.227V118.806H250.864Z" fill="white" fill-opacity="0.5"/>
<path d="M288.188 118.806V75.1693H307.023C310.262 75.1693 313.096 75.7588 315.525 76.9378C317.954 78.1168 319.843 79.8142 321.192 82.0301C322.542 84.246 323.216 86.9023 323.216 89.9989C323.216 93.1239 322.52 95.7588 321.128 97.9037C319.75 100.049 317.812 101.668 315.312 102.762C312.826 103.855 309.921 104.402 306.597 104.402H295.347V95.1978H304.211C305.603 95.1978 306.789 95.0273 307.769 94.6864C308.763 94.3313 309.523 93.7702 310.049 93.0032C310.589 92.2361 310.858 91.2347 310.858 89.9989C310.858 88.7489 310.589 87.7333 310.049 86.952C309.523 86.1566 308.763 85.5742 307.769 85.2049C306.789 84.8213 305.603 84.6296 304.211 84.6296H300.035V118.806H288.188ZM313.756 98.7773L324.665 118.806H311.796L301.142 98.7773H313.756Z" fill="white" fill-opacity="0.5"/>
<path d="M340.113 75.1693V118.806H328.266V75.1693H340.113Z" fill="white" fill-opacity="0.5"/>
<path d="M386.466 91.533H374.449C374.363 90.5387 374.136 89.6367 373.767 88.827C373.412 88.0174 372.915 87.3213 372.275 86.7389C371.65 86.1424 370.89 85.6878 369.995 85.3753C369.101 85.0486 368.085 84.8853 366.949 84.8853C364.96 84.8853 363.277 85.3682 361.899 86.3341C360.535 87.3 359.498 88.685 358.788 90.4889C358.092 92.2929 357.744 94.4591 357.744 96.9875C357.744 99.658 358.099 101.895 358.809 103.699C359.534 105.489 360.578 106.838 361.941 107.747C363.305 108.642 364.946 109.09 366.863 109.09C367.957 109.09 368.937 108.955 369.804 108.685C370.67 108.401 371.423 107.996 372.062 107.47C372.701 106.945 373.22 106.313 373.618 105.574C374.03 104.821 374.307 103.976 374.449 103.039L386.466 103.124C386.324 104.97 385.805 106.853 384.91 108.77C384.015 110.674 382.744 112.435 381.096 114.054C379.463 115.659 377.439 116.952 375.024 117.932C372.609 118.912 369.804 119.402 366.608 119.402C362.602 119.402 359.008 118.543 355.826 116.824C352.659 115.105 350.152 112.577 348.305 109.239C346.473 105.901 345.557 101.817 345.557 96.9875C345.557 92.1296 346.494 88.0387 348.369 84.7148C350.244 81.3767 352.772 78.8554 355.954 77.1509C359.136 75.4321 362.687 74.5728 366.608 74.5728C369.363 74.5728 371.899 74.9492 374.214 75.702C376.53 76.4549 378.561 77.5557 380.308 79.0046C382.055 80.4392 383.461 82.2077 384.527 84.31C385.592 86.4122 386.238 88.8199 386.466 91.533Z" fill="white" fill-opacity="0.5"/>
<path d="M401.828 118.806H389.044L403.447 75.1693H419.64L434.044 118.806H421.26L411.714 87.1864H411.373L401.828 118.806ZM399.441 101.59H423.476V110.453H399.441V101.59Z" fill="white" fill-opacity="0.5"/>
<path d="M27.7227 2.16935H39.5693V30.1239C39.5693 33.4478 38.7739 36.3242 37.183 38.7532C35.6063 41.1679 33.4045 43.0358 30.5778 44.3568C27.7511 45.6637 24.4699 46.3171 20.7341 46.3171C16.9699 46.3171 13.6744 45.6637 10.8477 44.3568C8.02102 43.0358 5.81932 41.1679 4.24261 38.7532C2.68011 36.3242 1.89886 33.4478 1.89886 30.1239V2.16935H13.7455V29.1012C13.7455 30.4506 14.0438 31.658 14.6403 32.7233C15.2369 33.7745 16.0608 34.5983 17.1119 35.1949C18.1773 35.7915 19.3847 36.0898 20.7341 36.0898C22.0977 36.0898 23.3051 35.7915 24.3563 35.1949C25.4074 34.5983 26.2313 33.7745 26.8278 32.7233C27.4244 31.658 27.7227 30.4506 27.7227 29.1012V2.16935Z" stroke="white" stroke-width="2" mask="url(#path-1-outside-1_1002_1106)"/>
<path d="M82.9553 2.16935V45.8057H73.069L57.3019 22.8796H57.0462V45.8057H45.1996V2.16935H55.2565L70.7678 25.0103H71.1087V2.16935H82.9553Z" stroke="white" stroke-width="2" mask="url(#path-1-outside-1_1002_1106)"/>
<path d="M100.406 2.16935V45.8057H88.559V2.16935H100.406Z" stroke="white" stroke-width="2" mask="url(#path-1-outside-1_1002_1106)"/>
<path d="M104.827 11.7148V2.16935H142.753V11.7148H129.628V45.8057H117.952V11.7148H104.827Z" stroke="white" stroke-width="2" mask="url(#path-1-outside-1_1002_1106)"/>
<path d="M147.211 45.8057V2.16935H178.66V11.7148H159.058V19.2148H177.041V28.7603H159.058V36.2603H178.575V45.8057H147.211Z" stroke="white" stroke-width="2" mask="url(#path-1-outside-1_1002_1106)"/>
<path d="M201.325 45.8057H184.536V2.16935H201.155C205.644 2.16935 209.521 3.04293 212.788 4.79009C216.07 6.52304 218.598 9.02304 220.374 12.2901C222.163 15.5429 223.058 19.4421 223.058 23.9875C223.058 28.533 222.171 32.4392 220.395 35.7063C218.619 38.9591 216.105 41.4591 212.852 43.2063C209.6 44.9392 205.757 45.8057 201.325 45.8057ZM196.382 35.7489H200.899C203.058 35.7489 204.898 35.4009 206.418 34.7049C207.952 34.0088 209.117 32.8085 209.912 31.104C210.722 29.3995 211.126 27.0273 211.126 23.9875C211.126 20.9478 210.715 18.5756 209.891 16.871C209.081 15.1665 207.888 13.9662 206.311 13.2702C204.749 12.5742 202.831 12.2262 200.558 12.2262H196.382V35.7489Z" stroke="white" stroke-width="2" mask="url(#path-1-outside-1_1002_1106)"/>
<path d="M264.015 15.8057C263.902 14.3853 263.369 13.2773 262.417 12.4818C261.48 11.6864 260.052 11.2887 258.135 11.2887C256.913 11.2887 255.912 11.4378 255.13 11.7361C254.363 12.0202 253.795 12.4108 253.426 12.908C253.057 13.4051 252.865 13.9733 252.851 14.6125C252.822 15.1381 252.914 15.6139 253.128 16.0401C253.355 16.452 253.71 16.8284 254.193 17.1693C254.676 17.496 255.294 17.7943 256.047 18.0642C256.799 18.3341 257.694 18.5756 258.731 18.7887L262.311 19.5557C264.726 20.0671 266.792 20.7418 268.511 21.5799C270.23 22.4179 271.636 23.4051 272.73 24.5415C273.824 25.6637 274.626 26.9279 275.138 28.3341C275.663 29.7404 275.933 31.2745 275.947 32.9364C275.933 35.8057 275.216 38.2347 273.795 40.2233C272.375 42.212 270.343 43.7247 267.701 44.7617C265.074 45.7986 261.913 46.3171 258.22 46.3171C254.427 46.3171 251.118 45.756 248.291 44.6338C245.478 43.5117 243.291 41.7858 241.728 39.4563C240.18 37.1125 239.399 34.1154 239.385 30.4648H250.635C250.706 31.8 251.039 32.9222 251.636 33.8313C252.233 34.7404 253.071 35.4293 254.15 35.898C255.244 36.3668 256.544 36.6012 258.049 36.6012C259.314 36.6012 260.372 36.4449 261.224 36.1324C262.076 35.8199 262.723 35.3867 263.163 34.8327C263.603 34.2787 263.831 33.6466 263.845 32.9364C263.831 32.2688 263.611 31.6864 263.184 31.1892C262.772 30.6779 262.091 30.2233 261.139 29.8256C260.187 29.4137 258.902 29.0301 257.282 28.675L252.936 27.7375C249.072 26.8995 246.025 25.5003 243.795 23.5401C241.579 21.5657 240.478 18.8739 240.493 15.4648C240.478 12.6949 241.217 10.273 242.709 8.19918C244.214 6.11111 246.295 4.48469 248.951 3.31991C251.622 2.15514 254.683 1.57275 258.135 1.57275C261.657 1.57275 264.704 2.16224 267.275 3.34122C269.846 4.5202 271.828 6.18213 273.22 8.32702C274.626 10.4577 275.336 12.9506 275.351 15.8057H264.015Z" stroke="white" stroke-width="2" mask="url(#path-1-outside-1_1002_1106)"/>
<path d="M279.26 11.7148V2.16935H317.187V11.7148H304.062V45.8057H292.385V11.7148H279.26Z" stroke="white" stroke-width="2" mask="url(#path-1-outside-1_1002_1106)"/>
<path d="M327.472 45.8057H314.688L329.092 2.16935H345.285L359.688 45.8057H346.904L337.359 14.1864H337.018L327.472 45.8057ZM325.086 28.5898H349.12V37.4534H325.086V28.5898Z" stroke="white" stroke-width="2" mask="url(#path-1-outside-1_1002_1106)"/>
<path d="M357.19 11.7148V2.16935H395.116V11.7148H381.991V45.8057H370.315V11.7148H357.19Z" stroke="white" stroke-width="2" mask="url(#path-1-outside-1_1002_1106)"/>
<path d="M399.575 45.8057V2.16935H431.023V11.7148H411.421V19.2148H429.404V28.7603H411.421V36.2603H430.938V45.8057H399.575Z" stroke="white" stroke-width="2" mask="url(#path-1-outside-1_1002_1106)"/>
<path d="M460.422 15.8057C460.308 14.3853 459.775 13.2773 458.824 12.4818C457.886 11.6864 456.459 11.2887 454.541 11.2887C453.319 11.2887 452.318 11.4378 451.537 11.7361C450.77 12.0202 450.201 12.4108 449.832 12.908C449.463 13.4051 449.271 13.9733 449.257 14.6125C449.228 15.1381 449.321 15.6139 449.534 16.0401C449.761 16.452 450.116 16.8284 450.599 17.1693C451.082 17.496 451.7 17.7943 452.453 18.0642C453.206 18.3341 454.101 18.5756 455.138 18.7887L458.717 19.5557C461.132 20.0671 463.199 20.7418 464.917 21.5799C466.636 22.4179 468.042 23.4051 469.136 24.5415C470.23 25.6637 471.032 26.9279 471.544 28.3341C472.069 29.7404 472.339 31.2745 472.353 32.9364C472.339 35.8057 471.622 38.2347 470.201 40.2233C468.781 42.212 466.75 43.7247 464.108 44.7617C461.48 45.7986 458.319 46.3171 454.626 46.3171C450.834 46.3171 447.524 45.756 444.697 44.6338C441.885 43.5117 439.697 41.7858 438.135 39.4563C436.586 37.1125 435.805 34.1154 435.791 30.4648H447.041C447.112 31.8 447.446 32.9222 448.042 33.8313C448.639 34.7404 449.477 35.4293 450.557 35.898C451.65 36.3668 452.95 36.6012 454.456 36.6012C455.72 36.6012 456.778 36.4449 457.63 36.1324C458.483 35.8199 459.129 35.3867 459.569 34.8327C460.01 34.2787 460.237 33.6466 460.251 32.9364C460.237 32.2688 460.017 31.6864 459.591 31.1892C459.179 30.6779 458.497 30.2233 457.545 29.8256C456.593 29.4137 455.308 29.0301 453.689 28.675L449.342 27.7375C445.478 26.8995 442.432 25.5003 440.201 23.5401C437.986 21.5657 436.885 18.8739 436.899 15.4648C436.885 12.6949 437.623 10.273 439.115 8.19918C440.62 6.11111 442.701 4.48469 445.358 3.31991C448.028 2.15514 451.089 1.57275 454.541 1.57275C458.064 1.57275 461.111 2.16224 463.682 3.34122C466.253 4.5202 468.234 6.18213 469.626 8.32702C471.032 10.4577 471.743 12.9506 471.757 15.8057H460.422Z" stroke="white" stroke-width="2" mask="url(#path-1-outside-1_1002_1106)"/>
<path d="M94.738 96.9875C94.738 101.845 93.7934 105.943 91.9042 109.282C90.015 112.605 87.4653 115.127 84.255 116.845C81.0448 118.55 77.4653 119.402 73.5164 119.402C69.5391 119.402 65.9454 118.543 62.7352 116.824C59.5391 115.091 56.9965 112.563 55.1073 109.239C53.2323 105.901 52.2948 101.817 52.2948 96.9875C52.2948 92.1296 53.2323 88.0387 55.1073 84.7148C56.9965 81.3767 59.5391 78.8554 62.7352 77.1509C65.9454 75.4321 69.5391 74.5728 73.5164 74.5728C77.4653 74.5728 81.0448 75.4321 84.255 77.1509C87.4653 78.8554 90.015 81.3767 91.9042 84.7148C93.7934 88.0387 94.738 92.1296 94.738 96.9875ZM82.5505 96.9875C82.5505 94.3739 82.2025 92.1722 81.5065 90.3824C80.8246 88.5784 79.809 87.2148 78.4596 86.2915C77.1244 85.354 75.4766 84.8853 73.5164 84.8853C71.5562 84.8853 69.9014 85.354 68.5519 86.2915C67.2167 87.2148 66.2011 88.5784 65.505 90.3824C64.8232 92.1722 64.4823 94.3739 64.4823 96.9875C64.4823 99.6012 64.8232 101.81 65.505 103.614C66.2011 105.404 67.2167 106.767 68.5519 107.705C69.9014 108.628 71.5562 109.09 73.5164 109.09C75.4766 109.09 77.1244 108.628 78.4596 107.705C79.809 106.767 80.8246 105.404 81.5065 103.614C82.2025 101.81 82.5505 99.6012 82.5505 96.9875Z" stroke="white" stroke-width="2" mask="url(#path-1-outside-1_1002_1106)"/>
<path d="M100.219 118.806V75.1693H130.901V84.7148H112.066V92.2148H129.026V101.76H112.066V118.806H100.219Z" stroke="white" stroke-width="2" mask="url(#path-1-outside-1_1002_1106)"/>
<path d="M158.547 118.806H145.762L160.166 75.1693H176.359L190.762 118.806H177.978L168.433 87.1864H168.092L158.547 118.806ZM156.16 101.59H180.194V110.453H156.16V101.59Z" stroke="white" stroke-width="2" mask="url(#path-1-outside-1_1002_1106)"/>
<path d="M194.965 75.1693H209.71L219.852 99.8853H220.363L230.505 75.1693H245.249V118.806H233.658V93.5784H233.318L223.602 118.465H216.613L206.897 93.408H206.556V118.806H194.965V75.1693Z" stroke="white" stroke-width="2" mask="url(#path-1-outside-1_1002_1106)"/>
<path d="M250.864 118.806V75.1693H282.313V84.7148H262.71V92.2148H280.693V101.76H262.71V109.26H282.227V118.806H250.864Z" stroke="white" stroke-width="2" mask="url(#path-1-outside-1_1002_1106)"/>
<path d="M288.188 118.806V75.1693H307.023C310.262 75.1693 313.096 75.7588 315.525 76.9378C317.954 78.1168 319.843 79.8142 321.192 82.0301C322.542 84.246 323.216 86.9023 323.216 89.9989C323.216 93.1239 322.52 95.7588 321.128 97.9037C319.75 100.049 317.812 101.668 315.312 102.762C312.826 103.855 309.921 104.402 306.597 104.402H295.347V95.1978H304.211C305.603 95.1978 306.789 95.0273 307.769 94.6864C308.763 94.3313 309.523 93.7702 310.049 93.0032C310.589 92.2361 310.858 91.2347 310.858 89.9989C310.858 88.7489 310.589 87.7333 310.049 86.952C309.523 86.1566 308.763 85.5742 307.769 85.2049C306.789 84.8213 305.603 84.6296 304.211 84.6296H300.035V118.806H288.188ZM313.756 98.7773L324.665 118.806H311.796L301.142 98.7773H313.756Z" stroke="white" stroke-width="2" mask="url(#path-1-outside-1_1002_1106)"/>
<path d="M340.113 75.1693V118.806H328.266V75.1693H340.113Z" stroke="white" stroke-width="2" mask="url(#path-1-outside-1_1002_1106)"/>
<path d="M386.466 91.533H374.449C374.363 90.5387 374.136 89.6367 373.767 88.827C373.412 88.0174 372.915 87.3213 372.275 86.7389C371.65 86.1424 370.89 85.6878 369.995 85.3753C369.101 85.0486 368.085 84.8853 366.949 84.8853C364.96 84.8853 363.277 85.3682 361.899 86.3341C360.535 87.3 359.498 88.685 358.788 90.4889C358.092 92.2929 357.744 94.4591 357.744 96.9875C357.744 99.658 358.099 101.895 358.809 103.699C359.534 105.489 360.578 106.838 361.941 107.747C363.305 108.642 364.946 109.09 366.863 109.09C367.957 109.09 368.937 108.955 369.804 108.685C370.67 108.401 371.423 107.996 372.062 107.47C372.701 106.945 373.22 106.313 373.618 105.574C374.03 104.821 374.307 103.976 374.449 103.039L386.466 103.124C386.324 104.97 385.805 106.853 384.91 108.77C384.015 110.674 382.744 112.435 381.096 114.054C379.463 115.659 377.439 116.952 375.024 117.932C372.609 118.912 369.804 119.402 366.608 119.402C362.602 119.402 359.008 118.543 355.826 116.824C352.659 115.105 350.152 112.577 348.305 109.239C346.473 105.901 345.557 101.817 345.557 96.9875C345.557 92.1296 346.494 88.0387 348.369 84.7148C350.244 81.3767 352.772 78.8554 355.954 77.1509C359.136 75.4321 362.687 74.5728 366.608 74.5728C369.363 74.5728 371.899 74.9492 374.214 75.702C376.53 76.4549 378.561 77.5557 380.308 79.0046C382.055 80.4392 383.461 82.2077 384.527 84.31C385.592 86.4122 386.238 88.8199 386.466 91.533Z" stroke="white" stroke-width="2" mask="url(#path-1-outside-1_1002_1106)"/>
<path d="M401.828 118.806H389.044L403.447 75.1693H419.64L434.044 118.806H421.26L411.714 87.1864H411.373L401.828 118.806ZM399.441 101.59H423.476V110.453H399.441V101.59Z" stroke="white" stroke-width="2" mask="url(#path-1-outside-1_1002_1106)"/>
</svg>
