<svg width="1280" height="71" viewBox="0 0 1280 71" fill="none" xmlns="http://www.w3.org/2000/svg">
<line x1="-9.63383" y1="34.2046" x2="1279.82" y2="34.2047" stroke="#FFA500" stroke-width="5"/>
<ellipse cx="648.086" cy="35.9453" rx="40" ry="35" fill="#FFA500"/>
<g clip-path="url(#clip0_790_2807)">
<path d="M647.288 22.5285L628.418 41.2835C628.312 41.3878 628.227 41.5119 628.17 41.6487C628.112 41.7855 628.082 41.9323 628.081 42.0807C628.081 42.229 628.11 42.376 628.167 42.5132C628.224 42.6503 628.307 42.775 628.413 42.8799C628.518 42.9848 628.644 43.0679 628.782 43.1245C628.92 43.181 629.068 43.2099 629.217 43.2095C629.366 43.209 629.514 43.1792 629.652 43.1218C629.789 43.0644 629.914 42.9805 630.019 42.8749L648.084 24.9197L666.15 42.8749C666.308 43.0315 666.51 43.1381 666.729 43.1814C666.948 43.2247 667.176 43.2027 667.382 43.1182C667.589 43.0337 667.766 42.8904 667.891 42.7063C668.017 42.5223 668.084 42.3056 668.086 42.0834C668.087 41.9358 668.057 41.7897 668 41.6537C667.942 41.5177 667.858 41.3946 667.751 41.2919L648.881 22.5368C648.777 22.4323 648.653 22.3491 648.517 22.2921C648.38 22.2351 648.234 22.2053 648.086 22.2046C647.938 22.2038 647.792 22.232 647.655 22.2876C647.518 22.3432 647.393 22.425 647.288 22.5285Z" fill="white"/>
</g>
<defs>
<clipPath id="clip0_790_2807">
<rect width="21" height="40" fill="white" transform="translate(628.086 43.2046) rotate(-90)"/>
</clipPath>
</defs>
</svg>
