<svg width="17" height="17" viewBox="0 0 17 17" fill="none" xmlns="http://www.w3.org/2000/svg">
<path d="M5.72191 8.5C5.72191 7.0273 6.9155 5.83312 8.38826 5.83312C9.86102 5.83312 11.0552 7.0273 11.0552 8.5C11.0552 9.9727 9.86102 11.1669 8.38826 11.1669C6.9155 11.1669 5.72191 9.9727 5.72191 8.5ZM4.28019 8.5C4.28019 10.7688 6.11937 12.6079 8.38826 12.6079C10.6572 12.6079 12.4963 10.7688 12.4963 8.5C12.4963 6.2312 10.6572 4.3921 8.38826 4.3921C6.11937 4.3921 4.28019 6.2312 4.28019 8.5ZM11.6989 4.22922C11.6988 4.41909 11.7551 4.60471 11.8605 4.76263C11.9659 4.92054 12.1158 5.04365 12.2912 5.11638C12.4666 5.18911 12.6596 5.2082 12.8459 5.17123C13.0321 5.13426 13.2032 5.0429 13.3375 4.90869C13.4719 4.77449 13.5634 4.60347 13.6005 4.41726C13.6376 4.23106 13.6187 4.03802 13.5461 3.86258C13.4735 3.68713 13.3505 3.53715 13.1926 3.4316C13.0348 3.32605 12.8492 3.26968 12.6593 3.2696H12.659C12.4044 3.26972 12.1604 3.37085 11.9804 3.55077C11.8004 3.7307 11.6991 3.97471 11.6989 4.22922ZM5.15613 15.0118C4.37613 14.9763 3.95218 14.8464 3.67044 14.7366C3.29692 14.5912 3.03041 14.418 2.75021 14.1382C2.47001 13.8584 2.29656 13.5922 2.15179 13.2187C2.04196 12.9371 1.91203 12.513 1.87658 11.733C1.83779 10.8898 1.83005 10.6364 1.83005 8.50006C1.83005 6.36368 1.83843 6.11107 1.87658 5.2671C1.9121 4.48714 2.04298 4.0639 2.15179 3.78147C2.2972 3.40797 2.47039 3.14147 2.75021 2.86128C3.03003 2.58109 3.29628 2.40765 3.67044 2.26288C3.95205 2.15306 4.37613 2.02314 5.15613 1.98768C5.99943 1.9489 6.25275 1.94115 8.38826 1.94115C10.5238 1.94115 10.7773 1.94954 11.6213 1.98768C12.4013 2.0232 12.8246 2.15408 13.107 2.26288C13.4806 2.40765 13.7471 2.58147 14.0273 2.86128C14.3075 3.14109 14.4803 3.40797 14.6257 3.78147C14.7355 4.06307 14.8654 4.48714 14.9009 5.2671C14.9397 6.11107 14.9474 6.36368 14.9474 8.50006C14.9474 10.6364 14.9397 10.8891 14.9009 11.733C14.8654 12.513 14.7348 12.9369 14.6257 13.2187C14.4803 13.5922 14.3071 13.8587 14.0273 14.1382C13.7475 14.4178 13.4806 14.5912 13.107 14.7366C12.8254 14.8464 12.4013 14.9764 11.6213 15.0118C10.7781 15.0506 10.5247 15.0583 8.38826 15.0583C6.25179 15.0583 5.99917 15.0506 5.15613 15.0118ZM5.08989 0.548448C4.23821 0.587232 3.65623 0.722272 3.14799 0.920032C2.62163 1.12426 2.17604 1.39824 1.73078 1.84278C1.28551 2.28733 1.01222 2.7336 0.807988 3.25994C0.61022 3.76848 0.475175 4.35011 0.436389 5.20176C0.396964 6.05475 0.387939 6.32746 0.387939 8.5C0.387939 10.6725 0.396964 10.9452 0.436389 11.7982C0.475175 12.65 0.61022 13.2315 0.807988 13.7401C1.01222 14.2661 1.28558 14.7129 1.73078 15.1572C2.17598 15.6016 2.62163 15.8752 3.14799 16.08C3.65719 16.2777 4.23821 16.4128 5.08989 16.4516C5.94336 16.4903 6.21563 16.5 8.38826 16.5C10.5609 16.5 10.8336 16.491 11.6866 16.4516C12.5384 16.4128 13.12 16.2777 13.6285 16.08C14.1546 15.8752 14.6005 15.6018 15.0457 15.1572C15.491 14.7127 15.7637 14.2661 15.9685 13.7401C16.1663 13.2315 16.302 12.6499 16.3401 11.7982C16.3789 10.9446 16.3879 10.6725 16.3879 8.5C16.3879 6.32746 16.3789 6.05475 16.3401 5.20176C16.3013 4.35005 16.1663 3.76816 15.9685 3.25994C15.7637 2.73392 15.4903 2.28803 15.0457 1.84278C14.6012 1.39754 14.1546 1.12426 13.6292 0.920032C13.12 0.722272 12.5383 0.586592 11.6873 0.548448C10.8342 0.509664 10.5615 0.5 8.3889 0.5C6.21627 0.5 5.94336 0.509024 5.08989 0.548448Z" fill="white" fill-opacity="0.7"/>
</svg>
