<svg width="27" height="26" viewBox="0 0 27 26" fill="none" xmlns="http://www.w3.org/2000/svg">
<g clip-path="url(#clip0_480_1902)">
<path d="M19.7954 17.0786C21.3689 15.014 22.0736 12.4543 21.7686 9.9116C21.4637 7.36888 20.1714 5.03064 18.1505 3.36469C16.1295 1.69874 13.5289 0.827931 10.8689 0.926483C8.20883 1.02503 5.6856 2.08568 3.80395 3.89622C1.92231 5.70676 0.821033 8.13367 0.720441 10.6914C0.619849 13.2492 1.52736 15.7491 3.26142 17.6911C4.99548 19.6331 7.42821 20.874 10.0729 21.1654C12.7176 21.4568 15.3792 20.7774 17.5252 19.2629H17.5236C17.5723 19.3254 17.6243 19.3848 17.6828 19.4426L23.9392 25.4582C24.2439 25.7514 24.6572 25.9162 25.0883 25.9164C25.5194 25.9165 25.9329 25.752 26.2378 25.459C26.5427 25.166 26.7141 24.7686 26.7142 24.3541C26.7144 23.9396 26.5433 23.5421 26.2386 23.2489L19.9823 17.2332C19.9242 17.1767 19.8617 17.126 19.7954 17.0786ZM20.2146 11.0723C20.2146 12.2008 19.9835 13.3183 19.5343 14.361C19.0851 15.4036 18.4268 16.351 17.5969 17.149C16.7669 17.947 15.7816 18.58 14.6973 19.0119C13.6129 19.4438 12.4507 19.666 11.277 19.666C10.1033 19.666 8.94108 19.4438 7.85672 19.0119C6.77236 18.58 5.78708 17.947 4.95714 17.149C4.12721 16.351 3.46887 15.4036 3.01971 14.361C2.57055 13.3183 2.33937 12.2008 2.33937 11.0723C2.33937 8.7931 3.28101 6.60724 4.95714 4.9956C6.63328 3.38396 8.9066 2.47855 11.277 2.47855C13.6474 2.47855 15.9207 3.38396 17.5969 4.9956C19.273 6.60724 20.2146 8.7931 20.2146 11.0723Z" fill="#666666"/>
</g>
<defs>
<clipPath id="clip0_480_1902">
<rect width="26.0004" height="25" fill="white" transform="translate(0.712891 0.918945)"/>
</clipPath>
</defs>
</svg>
