<svg width="17" height="12" viewBox="0 0 17 12" fill="none" xmlns="http://www.w3.org/2000/svg">
<path fill-rule="evenodd" clip-rule="evenodd" d="M14.935 0.515641C15.6204 0.700154 16.1607 1.24051 16.3452 1.92585C16.6879 3.1779 16.6747 5.78745 16.6747 5.78745C16.6747 5.78745 16.6747 8.38381 16.3452 9.63587C16.1607 10.3212 15.6204 10.8616 14.935 11.0461C13.683 11.3756 8.67477 11.3756 8.67477 11.3756C8.67477 11.3756 3.67973 11.3756 2.4145 11.0329C1.72917 10.8484 1.18881 10.308 1.00429 9.62269C0.674805 8.38381 0.674805 5.77427 0.674805 5.77427C0.674805 5.77427 0.674805 3.1779 1.00429 1.92585C1.18881 1.24051 1.74235 0.686975 2.4145 0.502462C3.66655 0.172974 8.67477 0.172974 8.67477 0.172974C8.67477 0.172974 13.683 0.172974 14.935 0.515641ZM11.2458 5.77477L7.08105 8.17344V3.3761L11.2458 5.77477Z" fill="white" fill-opacity="0.5"/>
</svg>
