<svg width="17" height="17" viewBox="0 0 17 17" fill="none" xmlns="http://www.w3.org/2000/svg">
<path d="M5.72167 8.77429C5.72167 7.30159 6.91525 6.10741 8.38802 6.10741C9.86078 6.10741 11.055 7.30159 11.055 8.77429C11.055 10.247 9.86078 11.4412 8.38802 11.4412C6.91525 11.4412 5.72167 10.247 5.72167 8.77429ZM4.27995 8.77429C4.27995 11.0431 6.11912 12.8822 8.38802 12.8822C10.6569 12.8822 12.4961 11.0431 12.4961 8.77429C12.4961 6.50549 10.6569 4.66639 8.38802 4.66639C6.11912 4.66639 4.27995 6.50549 4.27995 8.77429ZM11.6987 4.50351C11.6986 4.69338 11.7548 4.87901 11.8603 5.03692C11.9657 5.19483 12.1156 5.31794 12.291 5.39067C12.4664 5.4634 12.6594 5.48249 12.8456 5.44552C13.0319 5.40855 13.203 5.31719 13.3373 5.18299C13.4716 5.04878 13.5631 4.87776 13.6002 4.69156C13.6373 4.50535 13.6184 4.31232 13.5458 4.13687C13.4732 3.96142 13.3502 3.81144 13.1924 3.70589C13.0346 3.60035 12.849 3.54397 12.6591 3.54389H12.6587C12.4042 3.54401 12.1601 3.64514 11.9801 3.82506C11.8001 4.00499 11.6989 4.249 11.6987 4.50351ZM5.15589 15.2861C4.37589 15.2506 3.95193 15.1207 3.67019 15.0109C3.29668 14.8655 3.03017 14.6923 2.74997 14.4125C2.46976 14.1327 2.29632 13.8665 2.15154 13.4929C2.04171 13.2113 1.91179 12.7873 1.87633 12.0073C1.83755 11.1641 1.8298 10.9107 1.8298 8.77436C1.8298 6.63797 1.83819 6.38536 1.87633 5.5414C1.91185 4.76143 2.04274 4.3382 2.15154 4.05576C2.29696 3.68226 2.47015 3.41576 2.74997 3.13557C3.02979 2.85538 3.29604 2.68194 3.67019 2.53717C3.95181 2.42735 4.37589 2.29743 5.15589 2.26197C5.99918 2.22319 6.25251 2.21544 8.38802 2.21544C10.5235 2.21544 10.7771 2.22383 11.6211 2.26197C12.4011 2.29749 12.8244 2.42837 13.1068 2.53717C13.4803 2.68194 13.7468 2.85576 14.027 3.13557C14.3072 3.41538 14.48 3.68226 14.6255 4.05576C14.7353 4.33736 14.8652 4.76143 14.9007 5.5414C14.9394 6.38536 14.9472 6.63797 14.9472 8.77436C14.9472 10.9107 14.9394 11.1633 14.9007 12.0073C14.8651 12.7873 14.7346 13.2112 14.6255 13.4929C14.48 13.8665 14.3068 14.1329 14.027 14.4125C13.7472 14.6921 13.4803 14.8655 13.1068 15.0109C12.8252 15.1207 12.4011 15.2506 11.6211 15.2861C10.7778 15.3249 10.5245 15.3326 8.38802 15.3326C6.25155 15.3326 5.99893 15.3249 5.15589 15.2861ZM5.08964 0.82274C4.23796 0.861524 3.65599 0.996564 3.14774 1.19432C2.62138 1.39855 2.1758 1.67253 1.73053 2.11708C1.28527 2.56162 1.01198 3.00789 0.807744 3.53423C0.609976 4.04277 0.474931 4.6244 0.436145 5.47605C0.39672 6.32904 0.387695 6.60175 0.387695 8.77429C0.387695 10.9468 0.39672 11.2195 0.436145 12.0725C0.474931 12.9242 0.609976 13.5058 0.807744 14.0144C1.01198 14.5404 1.28533 14.9872 1.73053 15.4315C2.17573 15.8759 2.62138 16.1495 3.14774 16.3543C3.65695 16.552 4.23796 16.6871 5.08964 16.7258C5.94312 16.7646 6.21538 16.7743 8.38802 16.7743C10.5606 16.7743 10.8334 16.7653 11.6864 16.7258C12.5381 16.6871 13.1197 16.552 13.6283 16.3543C14.1543 16.1495 14.6002 15.8761 15.0455 15.4315C15.4908 14.987 15.7635 14.5404 15.9683 14.0144C16.1661 13.5058 16.3017 12.9242 16.3399 12.0725C16.3787 11.2189 16.3877 10.9468 16.3877 8.77429C16.3877 6.60175 16.3787 6.32904 16.3399 5.47605C16.3011 4.62434 16.1661 4.04245 15.9683 3.53423C15.7635 3.00821 15.4901 2.56232 15.0455 2.11708C14.6009 1.67183 14.1543 1.39855 13.6289 1.19432C13.1197 0.996564 12.5381 0.860884 11.687 0.82274C10.834 0.783956 10.5613 0.774292 8.38866 0.774292C6.21602 0.774292 5.94312 0.783316 5.08964 0.82274Z" fill="white" fill-opacity="0.7"/>
</svg>
