<svg width="31" height="31" viewBox="0 0 31 31" fill="none" xmlns="http://www.w3.org/2000/svg">
<g clip-path="url(#clip0_935_974)">
<path d="M7.64174 5.17375H8.42197L8.42584 8.16971C8.42607 8.36974 8.58832 8.57219 8.78842 8.57219C8.78853 8.57219 8.78865 8.57219 8.78889 8.57219C8.98916 8.57219 9.15123 8.36892 9.15099 8.16877L9.14713 5.17375H9.92443C10.0513 5.17375 10.1637 5.14474 10.2109 5.02715C10.2582 4.90949 10.2293 4.80045 10.1375 4.71291L8.99619 3.63432C8.87672 3.52035 8.68963 3.52598 8.57004 3.64023L7.42863 4.73359C7.33699 4.82113 7.30822 4.90814 7.35539 5.0258C7.40256 5.1434 7.51494 5.17375 7.64174 5.17375Z" fill="white"/>
<path d="M22.3643 9.28271C22.1639 9.28271 22.042 9.4449 22.042 9.64529V10.7422C22.1592 10.7092 22.4521 10.6803 22.6865 10.6552V9.64535C22.6865 9.4449 22.5646 9.28271 22.3643 9.28271Z" fill="white"/>
<path d="M21.276 5.17376H22.0564L22.0601 8.16972C22.0604 8.36976 22.2226 8.5722 22.4227 8.5722C22.4228 8.5722 22.4231 8.5722 22.4232 8.5722C22.6235 8.5722 22.7855 8.36894 22.7853 8.16878L22.7815 5.17376H23.5588C23.6856 5.17376 23.7826 5.14488 23.8297 5.02728C23.877 4.90962 23.917 4.8096 23.7413 4.72206V4.72927L22.6153 3.64253C22.4957 3.52845 22.3161 3.53015 22.1966 3.64435L21.0592 4.73554C20.9674 4.82308 20.9405 4.90892 20.9877 5.02681C21.0348 5.14447 21.1492 5.17376 21.276 5.17376Z" fill="white"/>
<path d="M17.4232 6.76628L16.8968 5.14616C16.8694 5.06185 16.8994 4.96956 16.9712 4.91753L18.3493 3.88036C18.5096 3.76388 18.4274 3.4746 18.2291 3.4746H16.5256C16.437 3.4746 16.3584 3.45327 16.331 3.36907L15.8046 1.76683C15.7434 1.57833 15.4767 1.5873 15.4155 1.77573L14.8891 3.36462C14.8617 3.44888 14.7831 3.4746 14.6946 3.4746H12.991C12.7929 3.4746 12.7105 3.76388 12.8708 3.88036L14.249 4.89972C14.3208 4.95169 14.3508 5.05294 14.3233 5.13732L13.7969 6.76189C13.7357 6.95038 13.9514 7.10935 14.1117 6.99281L15.4899 5.99261C15.5616 5.94052 15.6586 5.94111 15.7304 5.99325L17.1086 6.99474C17.2688 7.11122 17.4844 6.95478 17.4232 6.76628Z" fill="white"/>
<path d="M27.4269 27.0504C27.4794 27.056 27.5008 27.0589 27.5533 27.0589C28.3126 27.0589 28.8974 26.44 28.8974 25.6806V12.378C28.7802 12.3638 28.4872 12.351 28.3701 12.341V11.4817C28.3701 11.0651 28.0662 10.7171 27.6535 10.6749C26.6635 10.5735 24.7885 10.4468 22.7516 10.655C22.5116 10.6802 22.2716 10.7092 22.0289 10.7421C19.7667 11.0624 17.461 11.8363 16.0083 13.5369C16.0079 13.5374 16.0068 13.5379 16.0068 13.5383V29.4539C16.124 29.4011 16.4234 29.3007 16.6042 29.1569C17.6731 28.3081 20.1329 26.8842 24.6624 26.8842C25.5454 26.8843 26.4731 26.941 27.4269 27.0504ZM18.2571 15.1711C20.4792 13.941 22.7817 13.5027 25.5037 13.7915C25.7028 13.8127 25.847 13.9911 25.8259 14.1904C25.8049 14.3894 25.6267 14.533 25.4271 14.5127C22.8606 14.2398 20.6938 14.6509 18.6083 15.8055C18.5526 15.8362 18.4924 15.8509 18.433 15.8509C18.3054 15.8509 18.1817 15.7835 18.1156 15.6639C18.0185 15.4887 18.0819 15.268 18.2571 15.1711ZM18.2571 17.7602C20.4792 16.53 22.7817 16.0914 25.5037 16.3806C25.7028 16.4017 25.847 16.5802 25.8259 16.7794C25.8049 16.9784 25.6267 17.1221 25.4271 17.1017C22.8606 16.8289 20.6938 17.24 18.6083 18.3945C18.5526 18.4252 18.4924 18.4399 18.433 18.4399C18.3054 18.4399 18.1817 18.3725 18.1156 18.2529C18.0185 18.0777 18.0819 17.8571 18.2571 17.7602ZM18.2571 20.3491C20.4792 19.1191 22.7817 18.6804 25.5037 18.9695C25.7028 18.9907 25.847 19.1692 25.8259 19.3684C25.8049 19.5674 25.6267 19.711 25.4271 19.6906C22.8606 19.4178 20.6938 19.829 18.6083 20.9835C18.5526 21.0143 18.4924 21.0289 18.433 21.0289C18.3054 21.0289 18.1817 20.9615 18.1156 20.8419C18.0185 20.6667 18.0819 20.446 18.2571 20.3491ZM18.6083 23.5725C18.5526 23.6034 18.4924 23.618 18.433 23.618C18.3054 23.618 18.1817 23.5505 18.1156 23.4309C18.0185 23.2557 18.0819 23.0352 18.2571 22.9383C20.4792 21.7081 22.7817 21.2696 25.5037 21.5585C25.7028 21.5797 25.847 21.7582 25.8259 21.9574C25.8049 22.1566 25.6267 22.2999 25.4271 22.2797C22.8607 22.0068 20.6938 22.418 18.6083 23.5725Z" fill="white"/>
<path d="M9.15137 10.7314V9.64529C9.15137 9.4449 8.9416 9.28271 8.74121 9.28271C8.54082 9.28271 8.33105 9.4449 8.33105 9.64529V10.5644C8.33105 10.5644 8.42023 10.5644 8.41994 10.5644C6.40027 10.4472 4.53523 10.5301 3.55309 10.6315C3.14041 10.6737 2.82324 11.0651 2.82324 11.4817V12.341C2.58887 12.351 2.41309 12.3638 2.2959 12.378V25.6806C2.2959 26.44 2.89695 27.0589 3.65639 27.0589C3.71041 27.0589 3.75465 27.056 3.80721 27.0504C4.76105 26.941 5.68818 26.8842 6.57248 26.8842C11.1005 26.8842 13.5359 28.3081 14.6048 29.1569C14.7853 29.3003 15.0693 29.4005 15.1865 29.4537V13.516C13.7217 11.8038 11.3779 11.048 9.15137 10.7314ZM13.0298 23.4309C12.9635 23.5505 12.8398 23.618 12.7122 23.618C12.6528 23.618 12.5926 23.6034 12.537 23.5725C10.4516 22.418 8.28488 22.0073 5.7183 22.2797C5.51873 22.2998 5.34066 22.1565 5.31945 21.9574C5.29824 21.7583 5.44262 21.5798 5.64172 21.5586C8.36393 21.2699 10.666 21.708 12.8882 22.9383C13.0634 23.0352 13.1268 23.2557 13.0298 23.4309ZM13.0298 20.8419C12.9635 20.9615 12.8398 21.0289 12.7122 21.0289C12.6528 21.0289 12.5926 21.0144 12.537 20.9835C10.4516 19.829 8.28488 19.4184 5.7183 19.6907C5.51873 19.7107 5.34066 19.5675 5.31945 19.3684C5.29824 19.1693 5.44262 18.9908 5.64172 18.9696C8.36393 18.6808 10.666 19.1189 12.8882 20.3491C13.0634 20.4461 13.1268 20.6667 13.0298 20.8419ZM13.0298 18.2529C12.9635 18.3725 12.8398 18.4399 12.7122 18.4399C12.6528 18.4399 12.5926 18.4253 12.537 18.3945C10.4516 17.24 8.28488 16.8292 5.7183 17.1017C5.51873 17.1217 5.34066 16.9785 5.31945 16.7794C5.29824 16.5803 5.44262 16.4018 5.64172 16.3806C8.36393 16.0921 10.666 16.5301 12.8882 17.7602C13.0634 17.8571 13.1268 18.0778 13.0298 18.2529ZM13.0298 15.6639C12.9635 15.7835 12.8398 15.8509 12.7122 15.8509C12.6528 15.8509 12.5926 15.8362 12.537 15.8055C10.4516 14.651 8.28488 14.2403 5.7183 14.5127C5.51873 14.5328 5.34066 14.3895 5.31945 14.1904C5.2983 13.9912 5.44262 13.8128 5.64172 13.7916C8.36393 13.5029 10.666 13.941 12.8882 15.1712C13.0634 15.2681 13.1268 15.4887 13.0298 15.6639Z" fill="white"/>
<path d="M28.9484 28.1897C22.8682 27.5474 19.2078 28.9042 17.2974 30.0761H28.8514C29.3998 30.0761 29.8351 29.6684 29.8351 29.1201V27.401C29.8351 27.8808 29.4257 28.2395 28.9484 28.1897Z" fill="white"/>
<path d="M2.25939 28.1897C1.78215 28.2396 1.3584 27.8808 1.3584 27.401V29.1201C1.3584 29.6684 1.81965 30.0761 2.36814 30.0761H13.9222C12.0133 28.9042 8.33967 27.5474 2.25939 28.1897Z" fill="white"/>
</g>
<defs>
<clipPath id="clip0_935_974">
<rect width="30" height="30" fill="white" transform="translate(0.625977 0.867126)"/>
</clipPath>
</defs>
</svg>
