<svg width="31" height="31" viewBox="0 0 31 31" fill="none" xmlns="http://www.w3.org/2000/svg">
<path d="M11.376 3.78882H6.12598C5.33106 3.79119 4.56937 4.10803 4.00728 4.67012C3.44518 5.23222 3.12835 5.9939 3.12598 6.78882V12.0388C3.12835 12.8337 3.44518 13.5954 4.00728 14.1575C4.56937 14.7196 5.33106 15.0364 6.12598 15.0388H11.376C12.1709 15.0364 12.9326 14.7196 13.4947 14.1575C14.0568 13.5954 14.3736 12.8337 14.376 12.0388V6.78882C14.3736 5.9939 14.0568 5.23222 13.4947 4.67012C12.9326 4.10803 12.1709 3.79119 11.376 3.78882ZM11.376 12.0388H6.12598V6.78882H11.376V12.0388ZM25.626 7.91382C25.2282 7.91382 24.8466 8.07185 24.5653 8.35316C24.284 8.63446 24.126 9.01599 24.126 9.41382V12.0388H18.876V6.78882H21.501C21.8988 6.78882 22.2803 6.63078 22.5616 6.34948C22.8429 6.06817 23.001 5.68664 23.001 5.28882C23.001 4.89099 22.8429 4.50946 22.5616 4.22816C22.2803 3.94685 21.8988 3.78882 21.501 3.78882H18.876C18.0811 3.79119 17.3194 4.10803 16.7573 4.67012C16.1952 5.23222 15.8784 5.9939 15.876 6.78882V12.0388C15.8784 12.8337 16.1952 13.5954 16.7573 14.1575C17.3194 14.7196 18.0811 15.0364 18.876 15.0388H24.126C24.9209 15.0364 25.6826 14.7196 26.2447 14.1575C26.8068 13.5954 27.1236 12.8337 27.126 12.0388V9.41382C27.126 9.01599 26.9679 8.63446 26.6866 8.35316C26.4053 8.07185 26.0238 7.91382 25.626 7.91382ZM11.376 16.5388H6.12598C5.33106 16.5412 4.56937 16.858 4.00728 17.4201C3.44518 17.9822 3.12835 18.7439 3.12598 19.5388V24.7888C3.12835 25.5837 3.44518 26.3454 4.00728 26.9075C4.56937 27.4696 5.33106 27.7864 6.12598 27.7888H11.376C12.1709 27.7864 12.9326 27.4696 13.4947 26.9075C14.0568 26.3454 14.3736 25.5837 14.376 24.7888V19.5388C14.3736 18.7439 14.0568 17.9822 13.4947 17.4201C12.9326 16.858 12.1709 16.5412 11.376 16.5388ZM11.376 24.7888H6.12598V19.5388H11.376V24.7888ZM24.126 16.5388H18.876C18.0811 16.5412 17.3194 16.858 16.7573 17.4201C16.1952 17.9822 15.8784 18.7439 15.876 19.5388V24.7888C15.8784 25.5837 16.1952 26.3454 16.7573 26.9075C17.3194 27.4696 18.0811 27.7864 18.876 27.7888H24.126C24.9209 27.7864 25.6826 27.4696 26.2447 26.9075C26.8068 26.3454 27.1236 25.5837 27.126 24.7888V19.5388C27.1236 18.7439 26.8068 17.9822 26.2447 17.4201C25.6826 16.858 24.9209 16.5412 24.126 16.5388ZM24.126 24.7888H18.876V19.5388H24.126V24.7888Z" fill="white"/>
</svg>
