<svg width="31" height="31" viewBox="0 0 31 31" fill="none" xmlns="http://www.w3.org/2000/svg">
<g clip-path="url(#clip0_935_970)">
<path d="M15.0542 0.976959C11.6011 0.976959 8.8042 4.1252 8.8042 8.00821C8.8042 10.843 9.68232 11.6352 14.4136 19.3461C14.7238 19.8502 15.387 19.8502 15.6974 19.3461C20.424 11.6352 21.3042 10.8441 21.3042 8.00821C21.3042 4.1252 18.5073 0.976959 15.0542 0.976959ZM15.0542 11.2895C13.674 11.2895 12.5542 10.0297 12.5542 8.47696C12.5542 6.92422 13.674 5.66446 15.0542 5.66446C16.4334 5.66446 17.5542 6.92598 17.5542 8.47696C17.5542 10.0279 16.4344 11.2895 15.0542 11.2895ZM0.578158 14.3129C0.261699 14.4535 0.0541992 14.7992 0.0541992 15.1801V30.0336C0.0541992 30.6969 0.652637 31.1492 1.20003 30.9031L8.38753 27.227V12.7777C7.99691 12.0395 7.72087 11.4066 7.52295 10.7914L0.578158 14.3129ZM17.0646 20.4184C16.6115 21.1566 15.8563 21.602 15.0542 21.602C14.2511 21.602 13.499 21.1586 13.0407 20.4137C12.2 19.0414 10.3094 16.0121 10.0542 15.602V27.1742L20.0542 30.977V15.602C19.799 16.0121 17.9084 19.0414 17.0646 20.4184ZM28.9136 10.4223L21.7209 14.102V30.977L29.5282 27.0166C29.8459 26.8227 30.0542 26.5297 30.0542 26.1488V11.2895C30.0542 10.6273 29.4604 10.1234 28.9136 10.4223Z" fill="white"/>
</g>
<defs>
<clipPath id="clip0_935_970">
<rect width="30" height="30" fill="white" transform="translate(0.0541992 0.976959)"/>
</clipPath>
</defs>
</svg>
