<svg width="17" height="12" viewBox="0 0 17 12" fill="none" xmlns="http://www.w3.org/2000/svg">
<path fill-rule="evenodd" clip-rule="evenodd" d="M15.061 0.741349C15.7464 0.925862 16.2867 1.46622 16.4712 2.15156C16.8139 3.40361 16.8007 6.01316 16.8007 6.01316C16.8007 6.01316 16.8007 8.60952 16.4712 9.86158C16.2867 10.5469 15.7464 11.0873 15.061 11.2718C13.809 11.6013 8.80075 11.6013 8.80075 11.6013C8.80075 11.6013 3.80571 11.6013 2.54048 11.2586C1.85514 11.0741 1.31478 10.5337 1.13027 9.84839C0.800781 8.60952 0.800781 5.99998 0.800781 5.99998C0.800781 5.99998 0.800781 3.40361 1.13027 2.15156C1.31478 1.46622 1.86832 0.912683 2.54048 0.72817C3.79253 0.398682 8.80075 0.398682 8.80075 0.398682C8.80075 0.398682 13.809 0.398682 15.061 0.741349ZM11.3718 6.00048L7.20703 8.39915V3.60181L11.3718 6.00048Z" fill="white" fill-opacity="0.5"/>
</svg>
