<svg width="30" height="31" viewBox="0 0 30 31" fill="none" xmlns="http://www.w3.org/2000/svg">
<path d="M26.5 3.31329H25.5V2.56329C25.5 2.09916 25.3156 1.65405 24.9874 1.32586C24.6592 0.997668 24.2141 0.813293 23.75 0.813293C23.2859 0.813293 22.8408 0.997668 22.5126 1.32586C22.1844 1.65405 22 2.09916 22 2.56329V3.31329H16.75V2.56329C16.75 2.09916 16.5656 1.65405 16.2374 1.32586C15.9092 0.997668 15.4641 0.813293 15 0.813293C14.5359 0.813293 14.0908 0.997668 13.7626 1.32586C13.4344 1.65405 13.25 2.09916 13.25 2.56329V3.31329H8.5V2.56329C8.5 2.09916 8.31563 1.65405 7.98744 1.32586C7.65925 0.997668 7.21413 0.813293 6.75 0.813293C6.28587 0.813293 5.84075 0.997668 5.51256 1.32586C5.18437 1.65405 5 2.09916 5 2.56329V3.31329H3.5C2.57207 3.31435 1.68244 3.68344 1.0263 4.33959C0.370148 4.99574 0.00105868 5.88536 0 6.81329V27.3133C0.00105868 28.2412 0.370148 29.1309 1.0263 29.787C1.68244 30.4431 2.57207 30.8122 3.5 30.8133H26.5C27.4279 30.8122 28.3176 30.4431 28.9737 29.787C29.6299 29.1309 29.9989 28.2412 30 27.3133V6.81329C29.9989 5.88536 29.6299 4.99574 28.9737 4.33959C28.3176 3.68344 27.4279 3.31435 26.5 3.31329ZM23 2.56329C23 2.36438 23.079 2.17362 23.2197 2.03296C23.3603 1.89231 23.5511 1.81329 23.75 1.81329C23.9489 1.81329 24.1397 1.89231 24.2803 2.03296C24.421 2.17362 24.5 2.36438 24.5 2.56329V5.56329C24.5 5.76221 24.421 5.95297 24.2803 6.09362C24.1397 6.23428 23.9489 6.31329 23.75 6.31329C23.5511 6.31329 23.3603 6.23428 23.2197 6.09362C23.079 5.95297 23 5.76221 23 5.56329V2.56329ZM14.25 2.56329C14.25 2.36438 14.329 2.17362 14.4697 2.03296C14.6103 1.89231 14.8011 1.81329 15 1.81329C15.1989 1.81329 15.3897 1.89231 15.5303 2.03296C15.671 2.17362 15.75 2.36438 15.75 2.56329V5.56329C15.75 5.76221 15.671 5.95297 15.5303 6.09362C15.3897 6.23428 15.1989 6.31329 15 6.31329C14.8011 6.31329 14.6103 6.23428 14.4697 6.09362C14.329 5.95297 14.25 5.76221 14.25 5.56329V2.56329ZM6 2.56329C6 2.36438 6.07902 2.17362 6.21967 2.03296C6.36032 1.89231 6.55109 1.81329 6.75 1.81329C6.94891 1.81329 7.13968 1.89231 7.28033 2.03296C7.42098 2.17362 7.5 2.36438 7.5 2.56329V5.56329C7.5 5.76221 7.42098 5.95297 7.28033 6.09362C7.13968 6.23428 6.94891 6.31329 6.75 6.31329C6.55109 6.31329 6.36032 6.23428 6.21967 6.09362C6.07902 5.95297 6 5.76221 6 5.56329V2.56329ZM23.865 27.2033V24.5033C23.8661 24.0448 24.0487 23.6054 24.3729 23.2812C24.6971 22.957 25.1365 22.7743 25.595 22.7733H28.295L23.865 27.2033ZM29 21.1583C29.0001 21.2391 28.9842 21.3191 28.9533 21.3937C28.9224 21.4684 28.8771 21.5362 28.82 21.5933C28.7629 21.6504 28.6951 21.6957 28.6204 21.7266C28.5458 21.7575 28.4658 21.7734 28.385 21.7733H25.595C24.8712 21.7742 24.1774 22.0621 23.6656 22.5739C23.1538 23.0857 22.8659 23.7795 22.865 24.5033V27.2933C22.8651 27.3741 22.8492 27.4541 22.8183 27.5287C22.7874 27.6034 22.7421 27.6712 22.685 27.7283C22.6279 27.7854 22.5601 27.8307 22.4854 27.8616C22.4108 27.8925 22.3308 27.9084 22.25 27.9083L3.495 27.8783C2.83335 27.8753 2.19975 27.6107 1.73236 27.1424C1.26496 26.6741 1.00171 26.0399 1 25.3783V10.3133H29V21.1583Z" fill="white"/>
<path d="M12 17.8133C13.1046 17.8133 14 16.9179 14 15.8133C14 14.7087 13.1046 13.8133 12 13.8133C10.8954 13.8133 10 14.7087 10 15.8133C10 16.9179 10.8954 17.8133 12 17.8133Z" fill="white"/>
<path d="M18 23.8133C19.1046 23.8133 20 22.9179 20 21.8133C20 20.7087 19.1046 19.8133 18 19.8133C16.8954 19.8133 16 20.7087 16 21.8133C16 22.9179 16.8954 23.8133 18 23.8133Z" fill="white"/>
<path d="M19.0599 16.8733L13.0999 22.9083C12.808 23.2004 12.4125 23.3653 11.9995 23.3672C11.5865 23.369 11.1895 23.2077 10.8949 22.9183C10.6049 22.6235 10.4416 22.2269 10.4399 21.8133C10.4394 21.6081 10.4803 21.4048 10.5602 21.2158C10.6401 21.0268 10.7573 20.8559 10.9049 20.7133L16.9399 14.7483C17.2279 14.4797 17.6072 14.3307 18.0009 14.3317C18.3947 14.3326 18.7733 14.4833 19.0599 14.7533C19.3376 15.0363 19.4931 15.4169 19.4931 15.8133C19.4931 16.2097 19.3376 16.5903 19.0599 16.8733Z" fill="white"/>
</svg>
