<svg width="41" height="41" viewBox="0 0 41 41" fill="none" xmlns="http://www.w3.org/2000/svg">
<circle cx="20.4248" cy="20.4871" r="19.5" fill="white" stroke="#FFA500"/>
<g clip-path="url(#clip0_536_527)">
<path d="M26.818 19.6077L17.4405 8.82473C17.3884 8.76404 17.3263 8.7158 17.2579 8.68279C17.1895 8.64978 17.1161 8.63265 17.0419 8.63239C16.9678 8.63212 16.8943 8.64873 16.8257 8.68125C16.7571 8.71377 16.6948 8.76156 16.6423 8.82188C16.5899 8.8822 16.5483 8.95385 16.52 9.0327C16.4918 9.11156 16.4773 9.19607 16.4775 9.28137C16.4778 9.36667 16.4927 9.45108 16.5214 9.52973C16.5501 9.60838 16.592 9.67973 16.6448 9.73968L25.6224 20.0627L16.6448 30.3858C16.5665 30.4764 16.5132 30.5916 16.4916 30.7169C16.4699 30.8422 16.4809 30.972 16.5232 31.0902C16.5654 31.2083 16.6371 31.3095 16.7291 31.381C16.8211 31.4526 16.9295 31.4913 17.0406 31.4924C17.1144 31.4927 17.1874 31.4758 17.2554 31.4429C17.3234 31.41 17.385 31.3616 17.4363 31.3008L26.8139 20.5178C26.8661 20.4584 26.9077 20.3877 26.9362 20.3098C26.9647 20.2319 26.9796 20.1483 26.98 20.0637C26.9804 19.9792 26.9663 19.8954 26.9385 19.8172C26.9107 19.7389 26.8698 19.6677 26.818 19.6077Z" fill="#FFA500"/>
</g>
<defs>
<clipPath id="clip0_536_527">
<rect width="10.5" height="22.8571" fill="white" transform="translate(16.4805 8.63525)"/>
</clipPath>
</defs>
</svg>
