<svg width="17" height="16" viewBox="0 0 17 16" fill="none" xmlns="http://www.w3.org/2000/svg">
<path d="M5.84765 8C5.84765 6.5273 7.04123 5.33312 8.51399 5.33312C9.98676 5.33312 11.181 6.5273 11.181 8C11.181 9.4727 9.98676 10.6669 8.51399 10.6669C7.04123 10.6669 5.84765 9.4727 5.84765 8ZM4.40592 8C4.40592 10.2688 6.2451 12.1079 8.51399 12.1079C10.7829 12.1079 12.6221 10.2688 12.6221 8C12.6221 5.7312 10.7829 3.8921 8.51399 3.8921C6.2451 3.8921 4.40592 5.7312 4.40592 8ZM11.8247 3.72922C11.8246 3.91909 11.8808 4.10471 11.9862 4.26263C12.0917 4.42054 12.2416 4.54365 12.4169 4.61638C12.5923 4.68911 12.7854 4.7082 12.9716 4.67123C13.1579 4.63426 13.329 4.5429 13.4633 4.40869C13.5976 4.27449 13.6891 4.10347 13.7262 3.91726C13.7633 3.73106 13.7444 3.53802 13.6718 3.36258C13.5992 3.18713 13.4762 3.03715 13.3184 2.9316C13.1605 2.82605 12.975 2.76968 12.7851 2.7696H12.7847C12.5302 2.76972 12.2861 2.87085 12.1061 3.05077C11.9261 3.2307 11.8249 3.47471 11.8247 3.72922ZM5.28186 14.5118C4.50186 14.4763 4.07791 14.3464 3.79617 14.2366C3.42265 14.0912 3.15615 13.918 2.87594 13.6382C2.59574 13.3584 2.42229 13.0922 2.27752 12.7187C2.16769 12.4371 2.03776 12.013 2.00231 11.233C1.96352 10.3898 1.95578 10.1364 1.95578 8.00006C1.95578 5.86368 1.96416 5.61107 2.00231 4.7671C2.03783 3.98714 2.16871 3.5639 2.27752 3.28147C2.42293 2.90797 2.59612 2.64147 2.87594 2.36128C3.15576 2.08109 3.42201 1.90765 3.79617 1.76288C4.07778 1.65306 4.50186 1.52314 5.28186 1.48768C6.12516 1.4489 6.37848 1.44115 8.51399 1.44115C10.6495 1.44115 10.9031 1.44954 11.7471 1.48768C12.5271 1.5232 12.9503 1.65408 13.2328 1.76288C13.6063 1.90765 13.8728 2.08147 14.153 2.36128C14.4332 2.64109 14.606 2.90797 14.7514 3.28147C14.8613 3.56307 14.9912 3.98714 15.0266 4.7671C15.0654 5.61107 15.0732 5.86368 15.0732 8.00006C15.0732 10.1364 15.0654 10.3891 15.0266 11.233C14.9911 12.013 14.8606 12.4369 14.7514 12.7187C14.606 13.0922 14.4328 13.3587 14.153 13.6382C13.8732 13.9178 13.6063 14.0912 13.2328 14.2366C12.9512 14.3464 12.5271 14.4764 11.7471 14.5118C10.9038 14.5506 10.6505 14.5583 8.51399 14.5583C6.37752 14.5583 6.1249 14.5506 5.28186 14.5118ZM5.21562 0.048448C4.36394 0.087232 3.78196 0.222272 3.27372 0.420032C2.74736 0.624256 2.30178 0.89824 1.85651 1.34278C1.41124 1.78733 1.13795 2.2336 0.933721 2.75994C0.735953 3.26848 0.600907 3.85011 0.562122 4.70176C0.522696 5.55475 0.513672 5.82746 0.513672 8C0.513672 10.1725 0.522696 10.4452 0.562122 11.2982C0.600907 12.15 0.735953 12.7315 0.933721 13.2401C1.13795 13.7661 1.41131 14.2129 1.85651 14.6572C2.30171 15.1016 2.74736 15.3752 3.27372 15.58C3.78292 15.7777 4.36394 15.9128 5.21562 15.9516C6.06909 15.9903 6.34136 16 8.51399 16C10.6866 16 10.9593 15.991 11.8124 15.9516C12.6641 15.9128 13.2457 15.7777 13.7543 15.58C14.2803 15.3752 14.7262 15.1018 15.1715 14.6572C15.6167 14.2127 15.8895 13.7661 16.0943 13.2401C16.292 12.7315 16.4277 12.1499 16.4659 11.2982C16.5046 10.4446 16.5137 10.1725 16.5137 8C16.5137 5.82746 16.5046 5.55475 16.4659 4.70176C16.4271 3.85005 16.292 3.26816 16.0943 2.75994C15.8895 2.23392 15.616 1.78803 15.1715 1.34278C14.7269 0.897536 14.2803 0.624256 13.7549 0.420032C13.2457 0.222272 12.664 0.086592 11.813 0.048448C10.96 0.009664 10.6873 0 8.51463 0C6.342 0 6.06909 0.009024 5.21562 0.048448Z" fill="white" fill-opacity="0.7"/>
</svg>
