<svg width="36" height="36" viewBox="0 0 36 36" fill="none" xmlns="http://www.w3.org/2000/svg">
<g clip-path="url(#clip0_1001_1073)">
<path d="M18.2729 0.499542C8.64795 0.499542 0.772949 8.37454 0.772949 17.9995C0.772949 27.6245 8.64795 35.4995 18.2729 35.4995C27.8979 35.4995 35.7729 27.6245 35.7729 17.9995C35.7729 8.37454 27.8979 0.499542 18.2729 0.499542ZM18.2729 6.33288C21.4813 6.33288 24.1063 9.54121 24.1063 13.6245C24.1063 17.7079 21.4813 20.9162 18.2729 20.9162C15.0646 20.9162 12.4396 17.7079 12.4396 13.6245C12.4396 9.54121 15.0646 6.33288 18.2729 6.33288ZM27.898 28.937C25.4188 31.1245 21.9188 32.5829 18.2729 32.5829C14.6271 32.5829 11.1271 31.1245 8.64795 28.937C8.06462 28.3537 7.91878 27.4787 8.50212 26.8954C10.1063 24.9995 12.2938 23.687 14.6271 22.9579C15.7938 23.5412 16.9604 23.8329 18.2729 23.8329C19.5854 23.8329 20.7521 23.5412 21.9188 22.9579C24.3979 23.687 26.4396 24.9995 28.0438 26.8954C28.6271 27.4787 28.6271 28.3537 27.898 28.937Z" fill="white"/>
</g>
<defs>
<clipPath id="clip0_1001_1073">
<rect width="35" height="35" fill="white" transform="translate(0.772949 0.499542)"/>
</clipPath>
</defs>
</svg>
