<svg width="41" height="37" viewBox="0 0 41 37" fill="none" xmlns="http://www.w3.org/2000/svg">
<g clip-path="url(#clip0_1001_1076)">
<path d="M17.4061 2.68704V3.99954C22.2942 5.01331 25.977 9.42728 25.977 14.7183V16.0034C25.977 19.2232 27.1354 22.3199 29.2246 24.7261L29.7201 25.2935C30.2826 25.9429 30.4232 26.8589 30.075 27.6451C29.7268 28.4312 28.9634 28.937 28.1197 28.937H2.40688C1.56318 28.937 0.797887 28.4312 0.452236 27.6451C0.106586 26.8589 0.244839 25.9429 0.805453 25.2935L1.30203 24.7261C3.39388 22.3199 4.54962 19.2232 4.54962 16.0034V14.7183C4.54962 9.42728 8.17219 5.01331 13.1206 3.99954V2.68704C13.1206 1.47913 14.0781 0.499542 15.2633 0.499542C16.4485 0.499542 17.4061 1.47913 17.4061 2.68704ZM15.2633 35.4995C14.125 35.4995 13.0335 35.0415 12.23 34.2212C11.4265 33.4009 10.9778 32.2251 10.9778 31.1245H19.5488C19.5488 32.2251 19.1002 33.4009 18.2966 34.2212C17.4931 35.0415 16.3414 35.4995 15.2633 35.4995Z" fill="white"/>
</g>
<defs>
<clipPath id="clip0_1001_1076">
<rect width="40" height="36" fill="white" transform="translate(0.26416 0.499542)"/>
</clipPath>
</defs>
</svg>
