<svg width="17" height="12" viewBox="0 0 17 12" fill="none" xmlns="http://www.w3.org/2000/svg">
<path fill-rule="evenodd" clip-rule="evenodd" d="M15.0332 0.74138C15.7185 0.925893 16.2589 1.46625 16.4434 2.15159C16.7861 3.40364 16.7729 6.01319 16.7729 6.01319C16.7729 6.01319 16.7729 8.60955 16.4434 9.86161C16.2589 10.5469 15.7185 11.0873 15.0332 11.2718C13.7811 11.6013 8.77291 11.6013 8.77291 11.6013C8.77291 11.6013 3.77788 11.6013 2.51265 11.2586C1.82731 11.0741 1.28695 10.5338 1.10244 9.84842C0.772949 8.60955 0.772949 6.00001 0.772949 6.00001C0.772949 6.00001 0.772949 3.40364 1.10244 2.15159C1.28695 1.46625 1.84049 0.912713 2.51265 0.7282C3.7647 0.398712 8.77291 0.398712 8.77291 0.398712C8.77291 0.398712 13.7811 0.398712 15.0332 0.74138ZM11.3439 6.00051L7.1792 8.39918V3.60184L11.3439 6.00051Z" fill="white" fill-opacity="0.5"/>
</svg>
