<svg width="915" height="249" viewBox="0 0 915 249" fill="none" xmlns="http://www.w3.org/2000/svg">
<g filter="url(#filter0_d_393_361)">
<rect x="40" y="30.2466" width="835" height="167.799" fill="#354B60"/>
</g>
<ellipse cx="79.7613" cy="112.291" rx="18.3548" ry="18.4908" transform="rotate(-90 79.7613 112.291)" fill="white"/>
<mask id="path-3-inside-1_393_361" fill="white">
<path d="M68.1608 112.602L73.5359 119.979C73.5658 120.02 73.6014 120.053 73.6406 120.076C73.6798 120.098 73.7219 120.11 73.7644 120.11C73.8069 120.111 73.849 120.099 73.8883 120.077C73.9276 120.055 73.9634 120.022 73.9934 119.981C74.0235 119.939 74.0473 119.89 74.0635 119.836C74.0797 119.783 74.088 119.725 74.0879 119.666C74.0878 119.608 74.0792 119.55 74.0628 119.496C74.0463 119.443 74.0223 119.394 73.992 119.353L68.8461 112.291L73.992 105.229C74.0369 105.167 74.0674 105.088 74.0798 105.003C74.0922 104.917 74.0859 104.828 74.0617 104.747C74.0375 104.666 73.9964 104.597 73.9437 104.548C73.8909 104.499 73.8288 104.473 73.7652 104.472C73.7229 104.472 73.681 104.483 73.642 104.506C73.603 104.528 73.5678 104.562 73.5383 104.603L68.1632 111.98C68.1332 112.02 68.1094 112.069 68.0931 112.122C68.0767 112.175 68.0682 112.232 68.068 112.29C68.0678 112.348 68.0758 112.405 68.0918 112.459C68.1077 112.512 68.1312 112.561 68.1608 112.602Z"/>
</mask>
<path d="M68.1608 112.602L73.5359 119.979C73.5658 120.02 73.6014 120.053 73.6406 120.076C73.6798 120.098 73.7219 120.11 73.7644 120.11C73.8069 120.111 73.849 120.099 73.8883 120.077C73.9276 120.055 73.9634 120.022 73.9934 119.981C74.0235 119.939 74.0473 119.89 74.0635 119.836C74.0797 119.783 74.088 119.725 74.0879 119.666C74.0878 119.608 74.0792 119.55 74.0628 119.496C74.0463 119.443 74.0223 119.394 73.992 119.353L68.8461 112.291L73.992 105.229C74.0369 105.167 74.0674 105.088 74.0798 105.003C74.0922 104.917 74.0859 104.828 74.0617 104.747C74.0375 104.666 73.9964 104.597 73.9437 104.548C73.8909 104.499 73.8288 104.473 73.7652 104.472C73.7229 104.472 73.681 104.483 73.642 104.506C73.603 104.528 73.5678 104.562 73.5383 104.603L68.1632 111.98C68.1332 112.02 68.1094 112.069 68.0931 112.122C68.0767 112.175 68.0682 112.232 68.068 112.29C68.0678 112.348 68.0758 112.405 68.0918 112.459C68.1077 112.512 68.1312 112.561 68.1608 112.602Z" fill="black"/>
<path d="M68.1608 112.602L67.3499 113.188L67.3526 113.191L68.1608 112.602ZM73.5359 119.979L74.3476 119.395L74.3441 119.39L73.5359 119.979ZM73.992 119.353L73.1838 119.942L73.1873 119.947L73.992 119.353ZM68.8461 112.291L68.0379 111.702L67.6088 112.291L68.0379 112.88L68.8461 112.291ZM73.992 105.229L74.8002 105.818L74.802 105.816L73.992 105.229ZM73.7652 104.472L73.7765 103.472L73.7699 103.472L73.7652 104.472ZM73.5383 104.603L74.3465 105.192L74.3507 105.186L74.3549 105.18L73.5383 104.603ZM68.1632 111.98L68.9682 112.573L68.9714 112.569L68.1632 111.98ZM67.3526 113.191L72.7277 120.568L74.3441 119.39L68.969 112.013L67.3526 113.191ZM72.7243 120.563C72.8263 120.705 72.9641 120.84 73.1415 120.942L74.1397 119.209C74.2386 119.266 74.3053 119.336 74.3476 119.395L72.7243 120.563ZM73.1415 120.942C73.3213 121.046 73.5327 121.109 73.7601 121.11L73.7686 119.11C73.911 119.111 74.0383 119.151 74.1397 119.209L73.1415 120.942ZM73.7601 121.11C73.9876 121.111 74.1999 121.05 74.3809 120.947L73.3958 119.207C73.4982 119.149 73.6262 119.11 73.7686 119.11L73.7601 121.11ZM74.3809 120.947C74.5595 120.846 74.6986 120.711 74.8016 120.57L73.1852 119.392C73.2282 119.333 73.2958 119.263 73.3958 119.207L74.3809 120.947ZM74.8016 120.57C74.9047 120.428 74.9759 120.275 75.0212 120.124L73.1058 119.549C73.1188 119.506 73.1423 119.451 73.1852 119.392L74.8016 120.57ZM75.0212 120.124C75.0667 119.973 75.0882 119.817 75.0879 119.664L73.0879 119.669C73.0878 119.632 73.0928 119.592 73.1058 119.549L75.0212 120.124ZM75.0879 119.664C75.0875 119.511 75.0653 119.355 75.019 119.204L73.1065 119.789C73.0931 119.745 73.088 119.705 73.0879 119.669L75.0879 119.664ZM75.019 119.204C74.9729 119.053 74.9008 118.9 74.7967 118.759L73.1873 119.947C73.1437 119.887 73.1197 119.832 73.1065 119.789L75.019 119.204ZM74.8002 118.764L69.6543 111.702L68.0379 112.88L73.1838 119.942L74.8002 118.764ZM69.6543 112.88L74.8002 105.818L73.1838 104.64L68.0379 111.702L69.6543 112.88ZM74.802 105.816C74.9536 105.606 75.0371 105.37 75.0695 105.146L73.0902 104.859C73.0978 104.806 73.1202 104.728 73.182 104.643L74.802 105.816ZM75.0695 105.146C75.1022 104.92 75.0868 104.684 75.0196 104.46L73.1038 105.034C73.0851 104.972 73.0823 104.914 73.0902 104.859L75.0695 105.146ZM75.0196 104.46C74.9532 104.238 74.8283 104.005 74.6238 103.815L73.2636 105.281C73.1646 105.19 73.1219 105.094 73.1038 105.034L75.0196 104.46ZM74.6238 103.815C74.4144 103.621 74.1211 103.476 73.7765 103.472L73.7538 105.472C73.5365 105.47 73.3675 105.378 73.2636 105.281L74.6238 103.815ZM73.7699 103.472C73.5389 103.471 73.3239 103.535 73.1417 103.64L74.1423 105.372C74.0381 105.432 73.9069 105.473 73.7604 105.472L73.7699 103.472ZM73.1417 103.64C72.962 103.744 72.8234 103.882 72.7218 104.026L74.3549 105.18C74.3121 105.241 74.244 105.313 74.1423 105.372L73.1417 103.64ZM72.7301 104.014L67.355 111.391L68.9714 112.569L74.3465 105.192L72.7301 104.014ZM67.3582 111.386C67.2547 111.527 67.183 111.679 67.137 111.829L69.0491 112.415C69.0358 112.458 69.0117 112.514 68.9682 112.573L67.3582 111.386ZM67.137 111.829C67.0908 111.979 67.0686 112.134 67.068 112.286L69.068 112.294C69.0678 112.331 69.0626 112.371 69.0491 112.415L67.137 111.829ZM67.068 112.286C67.0674 112.439 67.0885 112.594 67.1333 112.744L69.0502 112.174C69.0632 112.217 69.0681 112.258 69.068 112.294L67.068 112.286ZM67.1333 112.744C67.178 112.894 67.2482 113.047 67.3499 113.188L68.9717 112.017C69.0141 112.076 69.0374 112.131 69.0502 112.174L67.1333 112.744Z" fill="black" mask="url(#path-3-inside-1_393_361)"/>
<rect width="36.9815" height="36.7096" transform="translate(815.585 95.7915)" fill="#354B60"/>
<ellipse cx="834.076" cy="114.146" rx="18.3548" ry="18.4908" transform="rotate(-90 834.076 114.146)" fill="white"/>
<mask id="path-6-inside-2_393_361" fill="white">
<path d="M846.823 113.835L841.448 106.459C841.418 106.417 841.382 106.384 841.343 106.362C841.304 106.339 841.262 106.327 841.219 106.327C841.177 106.327 841.135 106.338 841.095 106.361C841.056 106.383 841.02 106.416 840.99 106.457C840.96 106.498 840.936 106.547 840.92 106.601C840.904 106.655 840.896 106.713 840.896 106.771C840.896 106.829 840.904 106.887 840.921 106.941C840.937 106.995 840.961 107.044 840.992 107.085L846.138 114.147L840.992 121.208C840.947 121.27 840.916 121.349 840.904 121.435C840.891 121.521 840.898 121.609 840.922 121.69C840.946 121.771 840.987 121.84 841.04 121.889C841.093 121.938 841.155 121.965 841.218 121.965C841.261 121.966 841.303 121.954 841.342 121.932C841.381 121.909 841.416 121.876 841.445 121.834L846.82 114.458C846.85 114.417 846.874 114.369 846.891 114.316C846.907 114.262 846.915 114.205 846.916 114.147C846.916 114.089 846.908 114.032 846.892 113.979C846.876 113.925 846.852 113.876 846.823 113.835Z"/>
</mask>
<path d="M846.823 113.835L841.448 106.459C841.418 106.417 841.382 106.384 841.343 106.362C841.304 106.339 841.262 106.327 841.219 106.327C841.177 106.327 841.135 106.338 841.095 106.361C841.056 106.383 841.02 106.416 840.99 106.457C840.96 106.498 840.936 106.547 840.92 106.601C840.904 106.655 840.896 106.713 840.896 106.771C840.896 106.829 840.904 106.887 840.921 106.941C840.937 106.995 840.961 107.044 840.992 107.085L846.138 114.147L840.992 121.208C840.947 121.27 840.916 121.349 840.904 121.435C840.891 121.521 840.898 121.609 840.922 121.69C840.946 121.771 840.987 121.84 841.04 121.889C841.093 121.938 841.155 121.965 841.218 121.965C841.261 121.966 841.303 121.954 841.342 121.932C841.381 121.909 841.416 121.876 841.445 121.834L846.82 114.458C846.85 114.417 846.874 114.369 846.891 114.316C846.907 114.262 846.915 114.205 846.916 114.147C846.916 114.089 846.908 114.032 846.892 113.979C846.876 113.925 846.852 113.876 846.823 113.835Z" fill="#354B60"/>
<path d="M846.823 113.835L847.634 113.25L847.631 113.246L846.823 113.835ZM841.448 106.459L840.636 107.043L840.64 107.048L841.448 106.459ZM840.992 107.085L841.8 106.496L841.796 106.491L840.992 107.085ZM846.138 114.147L846.946 114.735L847.375 114.147L846.946 113.558L846.138 114.147ZM840.992 121.208L840.183 120.62L840.182 120.622L840.992 121.208ZM841.218 121.965L841.207 122.965L841.214 122.965L841.218 121.965ZM841.445 121.834L840.637 121.245L840.633 121.251L840.629 121.257L841.445 121.834ZM846.82 114.458L846.015 113.865L846.012 113.869L846.82 114.458ZM847.631 113.246L842.256 105.87L840.64 107.048L846.015 114.424L847.631 113.246ZM842.259 105.875C842.157 105.733 842.02 105.597 841.842 105.495L840.844 107.228C840.745 107.171 840.678 107.102 840.636 107.043L842.259 105.875ZM841.842 105.495C841.662 105.392 841.451 105.328 841.224 105.327L841.215 107.327C841.073 107.327 840.945 107.287 840.844 107.228L841.842 105.495ZM841.224 105.327C840.996 105.326 840.784 105.388 840.603 105.49L841.588 107.231C841.485 107.289 841.357 107.328 841.215 107.327L841.224 105.327ZM840.603 105.49C840.424 105.591 840.285 105.726 840.182 105.868L841.798 107.046C841.755 107.105 841.688 107.174 841.588 107.231L840.603 105.49ZM840.182 105.868C840.079 106.009 840.008 106.162 839.962 106.313L841.878 106.889C841.865 106.932 841.841 106.987 841.798 107.046L840.182 105.868ZM839.962 106.313C839.917 106.465 839.895 106.62 839.896 106.773L841.896 106.769C841.896 106.805 841.891 106.845 841.878 106.889L839.962 106.313ZM839.896 106.773C839.896 106.926 839.918 107.082 839.965 107.233L841.877 106.649C841.891 106.692 841.896 106.733 841.896 106.769L839.896 106.773ZM839.965 107.233C840.011 107.384 840.083 107.537 840.187 107.678L841.796 106.491C841.84 106.55 841.864 106.605 841.877 106.649L839.965 107.233ZM840.183 107.674L845.329 114.735L846.946 113.558L841.8 106.496L840.183 107.674ZM845.329 113.558L840.183 120.62L841.8 121.797L846.946 114.735L845.329 113.558ZM840.182 120.622C840.03 120.831 839.947 121.067 839.914 121.292L841.893 121.578C841.886 121.631 841.863 121.709 841.802 121.795L840.182 120.622ZM839.914 121.292C839.881 121.518 839.897 121.753 839.964 121.977L841.88 121.403C841.899 121.466 841.901 121.524 841.893 121.578L839.914 121.292ZM839.964 121.977C840.03 122.199 840.155 122.433 840.36 122.622L841.72 121.156C841.819 121.248 841.862 121.343 841.88 121.403L839.964 121.977ZM840.36 122.622C840.569 122.817 840.863 122.961 841.207 122.965L841.23 120.965C841.447 120.968 841.616 121.06 841.72 121.156L840.36 122.622ZM841.214 122.965C841.445 122.967 841.66 122.903 841.842 122.797L840.841 121.066C840.946 121.006 841.077 120.965 841.223 120.965L841.214 122.965ZM841.842 122.797C842.022 122.694 842.16 122.555 842.262 122.412L840.629 121.257C840.672 121.197 840.74 121.125 840.841 121.066L841.842 122.797ZM842.254 122.423L847.629 115.047L846.012 113.869L840.637 121.245L842.254 122.423ZM847.625 115.051C847.729 114.911 847.801 114.759 847.847 114.609L845.934 114.022C845.948 113.979 845.972 113.924 846.015 113.865L847.625 115.051ZM847.847 114.609C847.893 114.458 847.915 114.303 847.916 114.151L845.916 114.143C845.916 114.107 845.921 114.066 845.934 114.022L847.847 114.609ZM847.916 114.151C847.916 113.999 847.895 113.844 847.85 113.693L845.933 114.264C845.92 114.22 845.916 114.18 845.916 114.143L847.916 114.151ZM847.85 113.693C847.806 113.543 847.735 113.391 847.634 113.25L846.012 114.42C845.97 114.362 845.946 114.307 845.933 114.264L847.85 113.693Z" fill="#354B60" mask="url(#path-6-inside-2_393_361)"/>
<defs>
<filter id="filter0_d_393_361" x="0" y="0.246582" width="915" height="247.799" filterUnits="userSpaceOnUse" color-interpolation-filters="sRGB">
<feFlood flood-opacity="0" result="BackgroundImageFix"/>
<feColorMatrix in="SourceAlpha" type="matrix" values="0 0 0 0 0 0 0 0 0 0 0 0 0 0 0 0 0 0 127 0" result="hardAlpha"/>
<feOffset dy="10"/>
<feGaussianBlur stdDeviation="20"/>
<feComposite in2="hardAlpha" operator="out"/>
<feColorMatrix type="matrix" values="0 0 0 0 0 0 0 0 0 0 0 0 0 0 0 0 0 0 0.5 0"/>
<feBlend mode="normal" in2="BackgroundImageFix" result="effect1_dropShadow_393_361"/>
<feBlend mode="normal" in="SourceGraphic" in2="effect1_dropShadow_393_361" result="shape"/>
</filter>
</defs>
</svg>
