<svg width="1280" height="70" viewBox="0 0 1280 70" fill="none" xmlns="http://www.w3.org/2000/svg">
<line x1="-4.72827" y1="33.2593" x2="1284.73" y2="33.2594" stroke="#FFA500" stroke-width="5"/>
<ellipse cx="652.992" cy="35" rx="40" ry="35" fill="#FFA500"/>
<g clip-path="url(#clip0_956_966)">
<path d="M652.194 21.5832L633.323 40.3382C633.217 40.4425 633.133 40.5666 633.075 40.7034C633.017 40.8402 632.987 40.987 632.987 41.1354C632.986 41.2837 633.015 41.4307 633.072 41.5679C633.129 41.705 633.213 41.8297 633.318 41.9346C633.424 42.0395 633.549 42.1226 633.687 42.1792C633.825 42.2357 633.973 42.2646 634.123 42.2642C634.272 42.2637 634.42 42.2339 634.557 42.1765C634.695 42.1191 634.82 42.0352 634.925 41.9296L652.99 23.9744L671.055 41.9296C671.214 42.0862 671.415 42.1928 671.635 42.2361C671.854 42.2794 672.081 42.2574 672.288 42.1729C672.495 42.0884 672.672 41.9451 672.797 41.761C672.922 41.577 672.99 41.3603 672.992 41.1381C672.992 40.9905 672.963 40.8444 672.905 40.7084C672.848 40.5724 672.763 40.4493 672.656 40.3466L653.786 21.5915C653.682 21.4869 653.559 21.4038 653.422 21.3468C653.286 21.2898 653.14 21.26 652.992 21.2593C652.844 21.2585 652.697 21.2867 652.56 21.3423C652.423 21.3978 652.299 21.4797 652.194 21.5832Z" fill="white"/>
</g>
<defs>
<clipPath id="clip0_956_966">
<rect width="21" height="40" fill="white" transform="translate(632.992 42.2593) rotate(-90)"/>
</clipPath>
</defs>
</svg>
