<svg width="17" height="16" viewBox="0 0 17 16" fill="none" xmlns="http://www.w3.org/2000/svg">
<path d="M5.81933 8C5.81933 6.5273 7.01291 5.33312 8.48567 5.33312C9.95844 5.33312 11.1527 6.5273 11.1527 8C11.1527 9.4727 9.95844 10.6669 8.48567 10.6669C7.01291 10.6669 5.81933 9.4727 5.81933 8ZM4.3776 8C4.3776 10.2688 6.21678 12.1079 8.48567 12.1079C10.7546 12.1079 12.5937 10.2688 12.5937 8C12.5937 5.7312 10.7546 3.8921 8.48567 3.8921C6.21678 3.8921 4.3776 5.7312 4.3776 8ZM11.7963 3.72922C11.7963 3.91909 11.8525 4.10471 11.9579 4.26263C12.0633 4.42054 12.2132 4.54365 12.3886 4.61638C12.564 4.68911 12.757 4.7082 12.9433 4.67123C13.1295 4.63426 13.3006 4.5429 13.4349 4.40869C13.5693 4.27449 13.6608 4.10347 13.6979 3.91726C13.735 3.73106 13.7161 3.53802 13.6435 3.36258C13.5709 3.18713 13.4479 3.03715 13.2901 2.9316C13.1322 2.82605 12.9466 2.76968 12.7568 2.7696H12.7564C12.5019 2.76972 12.2578 2.87085 12.0778 3.05077C11.8978 3.2307 11.7966 3.47471 11.7963 3.72922ZM5.25354 14.5118C4.47354 14.4763 4.04959 14.3464 3.76785 14.2366C3.39433 14.0912 3.12783 13.918 2.84762 13.6382C2.56742 13.3584 2.39397 13.0922 2.2492 12.7187C2.13937 12.4371 2.00944 12.013 1.97399 11.233C1.9352 10.3898 1.92746 10.1364 1.92746 8.00006C1.92746 5.86368 1.93584 5.61107 1.97399 4.7671C2.00951 3.98714 2.14039 3.5639 2.2492 3.28147C2.39461 2.90797 2.5678 2.64147 2.84762 2.36128C3.12744 2.08109 3.39369 1.90765 3.76785 1.76288C4.04946 1.65306 4.47354 1.52314 5.25354 1.48768C6.09684 1.4489 6.35016 1.44115 8.48567 1.44115C10.6212 1.44115 10.8748 1.44954 11.7188 1.48768C12.4988 1.5232 12.922 1.65408 13.2045 1.76288C13.578 1.90765 13.8445 2.08147 14.1247 2.36128C14.4049 2.64109 14.5777 2.90797 14.7231 3.28147C14.8329 3.56307 14.9629 3.98714 14.9983 4.7671C15.0371 5.61107 15.0448 5.86368 15.0448 8.00006C15.0448 10.1364 15.0371 10.3891 14.9983 11.233C14.9628 12.013 14.8322 12.4369 14.7231 12.7187C14.5777 13.0922 14.4045 13.3587 14.1247 13.6382C13.8449 13.9178 13.578 14.0912 13.2045 14.2366C12.9228 14.3464 12.4988 14.4764 11.7188 14.5118C10.8755 14.5506 10.6221 14.5583 8.48567 14.5583C6.3492 14.5583 6.09658 14.5506 5.25354 14.5118ZM5.1873 0.048448C4.33562 0.087232 3.75364 0.222272 3.2454 0.420032C2.71904 0.624256 2.27346 0.89824 1.82819 1.34278C1.38292 1.78733 1.10963 2.2336 0.9054 2.75994C0.707632 3.26848 0.572587 3.85011 0.533802 4.70176C0.494376 5.55475 0.485352 5.82746 0.485352 8C0.485352 10.1725 0.494376 10.4452 0.533802 11.2982C0.572587 12.15 0.707632 12.7315 0.9054 13.2401C1.10963 13.7661 1.38299 14.2129 1.82819 14.6572C2.27339 15.1016 2.71904 15.3752 3.2454 15.58C3.7546 15.7777 4.33562 15.9128 5.1873 15.9516C6.04077 15.9903 6.31304 16 8.48567 16C10.6583 16 10.931 15.991 11.784 15.9516C12.6358 15.9128 13.2174 15.7777 13.7259 15.58C14.252 15.3752 14.6979 15.1018 15.1432 14.6572C15.5884 14.2127 15.8611 13.7661 16.0659 13.2401C16.2637 12.7315 16.3994 12.1499 16.4375 11.2982C16.4763 10.4446 16.4854 10.1725 16.4854 8C16.4854 5.82746 16.4763 5.55475 16.4375 4.70176C16.3988 3.85005 16.2637 3.26816 16.0659 2.75994C15.8611 2.23392 15.5877 1.78803 15.1432 1.34278C14.6986 0.897536 14.252 0.624256 13.7266 0.420032C13.2174 0.222272 12.6357 0.086592 11.7847 0.048448C10.9317 0.009664 10.6589 0 8.48631 0C6.31368 0 6.04077 0.009024 5.1873 0.048448Z" fill="white" fill-opacity="0.7"/>
</svg>
