<svg width="40" height="41" viewBox="0 0 40 41" fill="none" xmlns="http://www.w3.org/2000/svg">
<circle cx="20" cy="20.7029" r="20" fill="#1C2331"/>
<g clip-path="url(#clip0_522_657)">
<path d="M12.9096 21.1292L22.2237 31.9669C22.2755 32.0279 22.3373 32.0765 22.4055 32.1099C22.4737 32.1433 22.547 32.1609 22.6212 32.1616C22.6953 32.1623 22.7689 32.1461 22.8377 32.114C22.9065 32.0819 22.9691 32.0345 23.0219 31.9745C23.0747 31.9145 23.1167 31.843 23.1454 31.7644C23.1741 31.6857 23.1891 31.6012 23.1893 31.5159C23.1896 31.4306 23.1752 31.3462 23.147 31.2673C23.1187 31.1885 23.0772 31.1169 23.0248 31.0567L14.1078 20.6812L23.1458 10.4109C23.2246 10.3207 23.2786 10.2059 23.301 10.0807C23.3233 9.95554 23.3131 9.82562 23.2715 9.70724C23.23 9.58885 23.1589 9.48725 23.0673 9.41517C22.9757 9.34309 22.8676 9.30373 22.7565 9.30202C22.6827 9.3013 22.6095 9.31769 22.5414 9.35021C22.4732 9.38274 22.4114 9.43073 22.3596 9.49131L12.9191 20.2191C12.8664 20.2782 12.8244 20.3487 12.7955 20.4264C12.7665 20.5042 12.7512 20.5877 12.7503 20.6722C12.7494 20.7567 12.763 20.8406 12.7903 20.919C12.8177 20.9974 12.8582 21.0689 12.9096 21.1292Z" fill="white"/>
</g>
<defs>
<clipPath id="clip0_522_657">
<rect width="10.5" height="22.8571" fill="white" transform="translate(23.1826 32.162) rotate(-179.664)"/>
</clipPath>
</defs>
</svg>
