<svg width="40" height="41" viewBox="0 0 40 41" fill="none" xmlns="http://www.w3.org/2000/svg">
<circle cx="20" cy="20.7043" r="19.5" fill="white" stroke="#354B60"/>
<g clip-path="url(#clip0_522_661)">
<path d="M26.3932 19.825L17.0157 9.04202C16.9636 8.98133 16.9015 8.93309 16.8331 8.90008C16.7647 8.86707 16.6913 8.84994 16.6171 8.84967C16.543 8.84941 16.4695 8.86601 16.4009 8.89853C16.3323 8.93106 16.27 8.97885 16.2175 9.03917C16.1651 9.09948 16.1235 9.17113 16.0952 9.24999C16.0669 9.32885 16.0525 9.41336 16.0527 9.49866C16.053 9.58396 16.0679 9.66836 16.0966 9.74702C16.1253 9.82567 16.1672 9.89702 16.22 9.95696L25.1976 20.28L16.22 30.6031C16.1417 30.6937 16.0884 30.8089 16.0668 30.9342C16.0451 31.0595 16.0561 31.1893 16.0984 31.3075C16.1406 31.4256 16.2123 31.5268 16.3043 31.5983C16.3963 31.6699 16.5047 31.7086 16.6158 31.7097C16.6896 31.7099 16.7626 31.6931 16.8306 31.6602C16.8986 31.6273 16.9602 31.5789 17.0115 31.518L26.3891 20.7351C26.4413 20.6757 26.4829 20.605 26.5114 20.5271C26.5399 20.4492 26.5548 20.3655 26.5552 20.281C26.5556 20.1965 26.5415 20.1127 26.5137 20.0345C26.4859 19.9562 26.445 19.885 26.3932 19.825Z" fill="black"/>
</g>
<defs>
<clipPath id="clip0_522_661">
<rect width="10.5" height="22.8571" fill="white" transform="translate(16.0557 8.85254)"/>
</clipPath>
</defs>
</svg>
