<svg width="17" height="13" viewBox="0 0 17 13" fill="none" xmlns="http://www.w3.org/2000/svg">
<path fill-rule="evenodd" clip-rule="evenodd" d="M14.435 1.24135C15.1204 1.42586 15.6607 1.96622 15.8452 2.65156C16.1879 3.90361 16.1747 6.51316 16.1747 6.51316C16.1747 6.51316 16.1747 9.10952 15.8452 10.3616C15.6607 11.0469 15.1204 11.5873 14.435 11.7718C13.183 12.1013 8.17477 12.1013 8.17477 12.1013C8.17477 12.1013 3.17973 12.1013 1.9145 11.7586C1.22917 11.5741 0.688806 11.0337 0.504293 10.3484C0.174805 9.10952 0.174805 6.49998 0.174805 6.49998C0.174805 6.49998 0.174805 3.90361 0.504293 2.65156C0.688806 1.96622 1.24235 1.41268 1.9145 1.22817C3.16655 0.898682 8.17477 0.898682 8.17477 0.898682C8.17477 0.898682 13.183 0.898682 14.435 1.24135ZM10.7458 6.50048L6.58105 8.89915V4.10181L10.7458 6.50048Z" fill="white" fill-opacity="0.5"/>
</svg>
