<svg width="17" height="17" viewBox="0 0 17 17" fill="none" xmlns="http://www.w3.org/2000/svg">
<path d="M6.22167 8.5C6.22167 7.0273 7.41525 5.83312 8.88802 5.83312C10.3608 5.83312 11.555 7.0273 11.555 8.5C11.555 9.9727 10.3608 11.1669 8.88802 11.1669C7.41525 11.1669 6.22167 9.9727 6.22167 8.5ZM4.77995 8.5C4.77995 10.7688 6.61912 12.6079 8.88802 12.6079C11.1569 12.6079 12.9961 10.7688 12.9961 8.5C12.9961 6.2312 11.1569 4.3921 8.88802 4.3921C6.61912 4.3921 4.77995 6.2312 4.77995 8.5ZM12.1987 4.22922C12.1986 4.41909 12.2548 4.60471 12.3603 4.76263C12.4657 4.92054 12.6156 5.04365 12.791 5.11638C12.9664 5.18911 13.1594 5.2082 13.3456 5.17123C13.5319 5.13426 13.703 5.0429 13.8373 4.90869C13.9716 4.77449 14.0631 4.60347 14.1002 4.41726C14.1373 4.23106 14.1184 4.03802 14.0458 3.86258C13.9732 3.68713 13.8502 3.53715 13.6924 3.4316C13.5346 3.32605 13.349 3.26968 13.1591 3.2696H13.1587C12.9042 3.26972 12.6601 3.37085 12.4801 3.55077C12.3001 3.7307 12.1989 3.97471 12.1987 4.22922ZM5.65589 15.0118C4.87589 14.9763 4.45193 14.8464 4.17019 14.7366C3.79668 14.5912 3.53017 14.418 3.24997 14.1382C2.96976 13.8584 2.79632 13.5922 2.65154 13.2187C2.54171 12.9371 2.41179 12.513 2.37633 11.733C2.33755 10.8898 2.3298 10.6364 2.3298 8.50006C2.3298 6.36368 2.33819 6.11107 2.37633 5.2671C2.41185 4.48714 2.54274 4.0639 2.65154 3.78147C2.79696 3.40797 2.97015 3.14147 3.24997 2.86128C3.52979 2.58109 3.79604 2.40765 4.17019 2.26288C4.45181 2.15306 4.87589 2.02314 5.65589 1.98768C6.49918 1.9489 6.75251 1.94115 8.88802 1.94115C11.0235 1.94115 11.2771 1.94954 12.1211 1.98768C12.9011 2.0232 13.3244 2.15408 13.6068 2.26288C13.9803 2.40765 14.2468 2.58147 14.527 2.86128C14.8072 3.14109 14.98 3.40797 15.1255 3.78147C15.2353 4.06307 15.3652 4.48714 15.4007 5.2671C15.4394 6.11107 15.4472 6.36368 15.4472 8.50006C15.4472 10.6364 15.4394 10.8891 15.4007 11.733C15.3651 12.513 15.2346 12.9369 15.1255 13.2187C14.98 13.5922 14.8068 13.8587 14.527 14.1382C14.2472 14.4178 13.9803 14.5912 13.6068 14.7366C13.3252 14.8464 12.9011 14.9764 12.1211 15.0118C11.2778 15.0506 11.0245 15.0583 8.88802 15.0583C6.75155 15.0583 6.49893 15.0506 5.65589 15.0118ZM5.58964 0.548448C4.73796 0.587232 4.15599 0.722272 3.64774 0.920032C3.12138 1.12426 2.6758 1.39824 2.23053 1.84278C1.78527 2.28733 1.51198 2.7336 1.30774 3.25994C1.10998 3.76848 0.974931 4.35011 0.936145 5.20176C0.89672 6.05475 0.887695 6.32746 0.887695 8.5C0.887695 10.6725 0.89672 10.9452 0.936145 11.7982C0.974931 12.65 1.10998 13.2315 1.30774 13.7401C1.51198 14.2661 1.78533 14.7129 2.23053 15.1572C2.67573 15.6016 3.12138 15.8752 3.64774 16.08C4.15695 16.2777 4.73796 16.4128 5.58964 16.4516C6.44312 16.4903 6.71538 16.5 8.88802 16.5C11.0606 16.5 11.3334 16.491 12.1864 16.4516C13.0381 16.4128 13.6197 16.2777 14.1283 16.08C14.6543 15.8752 15.1002 15.6018 15.5455 15.1572C15.9908 14.7127 16.2635 14.2661 16.4683 13.7401C16.6661 13.2315 16.8017 12.6499 16.8399 11.7982C16.8787 10.9446 16.8877 10.6725 16.8877 8.5C16.8877 6.32746 16.8787 6.05475 16.8399 5.20176C16.8011 4.35005 16.6661 3.76816 16.4683 3.25994C16.2635 2.73392 15.9901 2.28803 15.5455 1.84278C15.1009 1.39754 14.6543 1.12426 14.1289 0.920032C13.6197 0.722272 13.0381 0.586592 12.187 0.548448C11.334 0.509664 11.0613 0.5 8.88866 0.5C6.71602 0.5 6.44312 0.509024 5.58964 0.548448Z" fill="white" fill-opacity="0.7"/>
</svg>
